<svg id="Layer_7" data-name="Layer 7" xmlns="http://www.w3.org/2000/svg" viewBox="0 0 512 512">
  <defs>
    <style>
      .cls-1 {
        fill: #0177c7;
      }

      .cls-2 {
        fill: #064e81;
        isolation: isolate;
      }

      .cls-3 {
        fill: #d9e2e8;
      }

      .cls-4 {
        fill: #597d96;
      }

      .cls-5 {
        fill: #7b9bb1;
      }

      .cls-6 {
        fill: #97b0c1;
      }
    </style>
  </defs>
  <title>icon-unit4</title>
  <circle class="cls-1" cx="251.5" cy="264" r="223.5"/>
  <path class="cls-2" d="M474.4,279.9,343.5,149l-203,201L276.6,486.1C383,474.2,466.8,387.6,474.4,279.9Z"/>
  <g>
    <path class="cls-3" d="M155,143.5h87.5v34.9a18.9,18.9,0,0,0-7.2-1.4,20,20,0,0,0,0,40,19.2,19.2,0,0,0,7.2-1.4V250H207.6a18.9,18.9,0,0,1,1.4,7.2,20,20,0,0,1-40,0,19.2,19.2,0,0,1,1.4-7.2H136V162.5A19,19,0,0,1,155,143.5Z"/>
    <path class="cls-4" d="M170.4,250a18.9,18.9,0,0,0-1.4,7.2,20,20,0,0,0,40,0,19.2,19.2,0,0,0-1.4-7.2h34.9v34.7a18.9,18.9,0,0,1,6.7-1.2,20.3,20.3,0,0,1,19.9,19.1,20,20,0,0,1-19.9,20.9,18.5,18.5,0,0,1-6.7-1.2v34.2H155a19,19,0,0,1-19-19V250Z"/>
    <path class="cls-5" d="M289.2,323.5a18.9,18.9,0,0,0-6.7,1.2V290h34.2a18.9,18.9,0,0,1-1.2-6.7,20,20,0,0,1,40,0,20.9,20.9,0,0,1-1.2,6.7H389v87.5a19,19,0,0,1-19,19H282.5V362.3a18.5,18.5,0,0,0,6.7,1.2,20,20,0,0,0,19.9-20.9A20.3,20.3,0,0,0,289.2,323.5Z"/>
    <path class="cls-6" d="M235.3,177a18.9,18.9,0,0,1,7.2,1.4V143.5H330a19,19,0,0,1,19,19V250H314.3a18.9,18.9,0,0,0,1.2-6.7,20.3,20.3,0,0,0-19.1-19.9,20,20,0,0,0-20.9,19.9,18.5,18.5,0,0,0,1.2,6.7H242.5V215.6a19.2,19.2,0,0,1-7.2,1.4,20,20,0,0,1,0-40Z"/>
  </g>
</svg>
