<svg xmlns="http://www.w3.org/2000/svg" viewBox="0 0 512 512">
  <defs>
    <style>
      .cls-1 {
        fill: #0177c7;
      }

      .cls-2 {
        fill: #064e81;
        isolation: isolate;
      }

      .cls-3 {
        fill: #d9e2e8;
      }

      .cls-4 {
        fill: #597d96;
      }

      .cls-5 {
        fill: #7b9bb1;
      }

      .cls-6 {
        fill: #97b0c1;
      }
    </style>
  </defs>
  <title>icon-unit2</title>
  <g id="Layer_6" data-name="Layer 6">
    <circle class="cls-1" cx="251.5" cy="273.5" r="223.5"/>
    <path class="cls-2" d="M475,273.5c0-7.6-.4-15.2-1.1-22.6L372.5,149.5l-117,57,.5.5-.5-.5-24-24-67,67-35,139L237.6,496.6c4.6.2,9.2.4,13.9.4C374.9,497,475,396.9,475,273.5Z"/>
    <g>
      <path class="cls-3" d="M144,183h87.5v34.9a18.9,18.9,0,0,0-7.2-1.4,20,20,0,0,0,0,40,19.2,19.2,0,0,0,7.2-1.4v34.4H196.6a18.9,18.9,0,0,1,1.4,7.2,20,20,0,0,1-40,0,19.2,19.2,0,0,1,1.4-7.2H125V202A19,19,0,0,1,144,183Z"/>
      <path class="cls-4" d="M159.4,289.5a18.9,18.9,0,0,0-1.4,7.2,20,20,0,0,0,40,0,19.2,19.2,0,0,0-1.4-7.2h34.9v34.7a18.9,18.9,0,0,1,6.7-1.2,20.3,20.3,0,0,1,19.9,19.1A20,20,0,0,1,238.2,363a18.5,18.5,0,0,1-6.7-1.2V396H144a19,19,0,0,1-19-19V289.5Z"/>
      <path class="cls-5" d="M238.2,323a18.9,18.9,0,0,0-6.7,1.2V289.5h34.2a18.9,18.9,0,0,1-1.2-6.7,20,20,0,0,1,40,0,20.9,20.9,0,0,1-1.2,6.7H338V377a19,19,0,0,1-19,19H231.5V361.8a18.5,18.5,0,0,0,6.7,1.2,20,20,0,0,0,19.9-20.9A20.3,20.3,0,0,0,238.2,323Z"/>
      <path class="cls-6" d="M264.3,176.5a18.9,18.9,0,0,1,7.2,1.4V143H359a19,19,0,0,1,19,19v87.5H343.3a18.9,18.9,0,0,0,1.2-6.7,20.3,20.3,0,0,0-19.1-19.9,20,20,0,0,0-20.9,19.9,18.5,18.5,0,0,0,1.2,6.7H271.5V215.1a19.2,19.2,0,0,1-7.2,1.4,20,20,0,0,1,0-40Z"/>
    </g>
  </g>
</svg>
