<svg xmlns="http://www.w3.org/2000/svg" viewBox="0 0 512 512">
  <defs>
    <style>
      .cls-1 {
        fill: #0177c7;
      }

      .cls-2 {
        fill: #064e81;
        isolation: isolate;
      }

      .cls-3 {
        fill: #97b0c1;
      }

      .cls-4 {
        fill: #d9e2e8;
      }

      .cls-5 {
        fill: #597d96;
      }

      .cls-6 {
        fill: #7b9bb1;
      }
    </style>
  </defs>
  <title>icon-unit</title>
  <g id="icon-unit">
    <circle class="cls-1" cx="256" cy="268.5" r="223.5"/>
    <path class="cls-2" d="M478.9,285.4,378,184.5l-45,50-97-97-106,107,92,92-48,47L281.1,490.6C387.2,478.7,470.9,392.6,478.9,285.4Z"/>
    <path class="cls-3" d="M268.8,211.5a18.9,18.9,0,0,1,7.2,1.4V178h87.5a19,19,0,0,1,19,19v87.5H347.8a18.9,18.9,0,0,0,1.2-6.7,20.3,20.3,0,0,0-19.1-19.9A20,20,0,0,0,309,277.8a18.5,18.5,0,0,0,1.2,6.7H276V250.1a19.2,19.2,0,0,1-7.2,1.4,20,20,0,0,1,0-40Z"/>
    <path class="cls-4" d="M148.5,138H236v34.9a18.9,18.9,0,0,0-7.2-1.4,20,20,0,0,0,0,40,19.2,19.2,0,0,0,7.2-1.4v34.4H201.1a18.9,18.9,0,0,1,1.4,7.2,20,20,0,0,1-40,0,19.2,19.2,0,0,1,1.4-7.2H129.5V157A19,19,0,0,1,148.5,138Z"/>
    <path class="cls-5" d="M203.9,284.5a18.9,18.9,0,0,0-1.4,7.2,20,20,0,0,0,40,0,19.2,19.2,0,0,0-1.4-7.2H276v34.7a18.9,18.9,0,0,1,6.7-1.2,20.3,20.3,0,0,1,19.9,19.1A20,20,0,0,1,282.7,358a18.5,18.5,0,0,1-6.7-1.2V391H188.5a19,19,0,0,1-19-19V284.5Z"/>
    <path class="cls-6" d="M282.7,318a18.9,18.9,0,0,0-6.7,1.2V284.5h34.2a18.9,18.9,0,0,1-1.2-6.7,20,20,0,0,1,40,0,20.9,20.9,0,0,1-1.2,6.7h34.7V372a19,19,0,0,1-19,19H276V356.8a18.5,18.5,0,0,0,6.7,1.2,20,20,0,0,0,19.9-20.9A20.3,20.3,0,0,0,282.7,318Z"/>
  </g>
</svg>
