<svg xmlns="http://www.w3.org/2000/svg" viewBox="0 0 512 512">
  <defs>
    <style>
      .cls-1 {
        fill: #0177c7;
      }

      .cls-2 {
        fill: #064e81;
        isolation: isolate;
      }

      .cls-3 {
        fill: #d9e2e8;
      }

      .cls-4 {
        fill: #7b9bb1;
      }

      .cls-5 {
        fill: #97b0c1;
      }

      .cls-6 {
        fill: #597d96;
      }
    </style>
  </defs>
  <title>icon-unit3</title>
  <g id="Layer_8" data-name="Layer 8">
    <circle class="cls-1" cx="253.5" cy="264" r="223.5"/>
    <path class="cls-2" d="M477,264c0-4-.1-7.9-.3-11.8L373.5,149l-209,99L219,302.5l.5-.5-18,29-.5-.5L158.5,288l-29,100,98,98a222.8,222.8,0,0,0,26,1.5C376.9,487.5,477,387.4,477,264Z"/>
    <g>
      <path class="cls-3" d="M183.5,141.5H271v34.9a18.9,18.9,0,0,0-7.2-1.4,20,20,0,0,0,0,40,19.2,19.2,0,0,0,7.2-1.4V248H236.1a18.9,18.9,0,0,1,1.4,7.2,20,20,0,0,1-40,0,19.2,19.2,0,0,1,1.4-7.2H164.5V160.5A19,19,0,0,1,183.5,141.5Z"/>
      <path class="cls-4" d="M277.7,281.5a18.9,18.9,0,0,0-6.7,1.2V248h34.2a18.9,18.9,0,0,1-1.2-6.7,20,20,0,0,1,40,0,20.9,20.9,0,0,1-1.2,6.7h34.7v87.5a19,19,0,0,1-19,19H271V320.3a18.5,18.5,0,0,0,6.7,1.2,20,20,0,0,0,19.9-20.9A20.3,20.3,0,0,0,277.7,281.5Z"/>
      <path class="cls-5" d="M263.8,175a18.9,18.9,0,0,1,7.2,1.4V141.5h87.5a19,19,0,0,1,19,19V248H342.8a18.9,18.9,0,0,0,1.2-6.7,20.3,20.3,0,0,0-19.1-19.9A20,20,0,0,0,304,241.3a18.5,18.5,0,0,0,1.2,6.7H271V213.6a19.2,19.2,0,0,1-7.2,1.4,20,20,0,0,1,0-40Z"/>
      <path class="cls-6" d="M158.9,288a18.9,18.9,0,0,0-1.4,7.2,20,20,0,0,0,40,0,19.2,19.2,0,0,0-1.4-7.2H231v34.7a18.9,18.9,0,0,1,6.7-1.2,20.3,20.3,0,0,1,19.9,19.1,20,20,0,0,1-19.9,20.9,18.5,18.5,0,0,1-6.7-1.2v34.2H143.5a19,19,0,0,1-19-19V288Z"/>
    </g>
  </g>
</svg>
