<svg xmlns="http://www.w3.org/2000/svg" viewBox="0 0 133.37 40.55"><defs><style>.cls-1{fill:#ee3524;}</style></defs><title>IFI_S_INTFull_FC</title><g id="Layer_2" data-name="Layer 2"><g id="IFI_S_Int_Full" data-name="IFI S Int Full"><path d="M45.26,18.57h2.07v10.5H45.26Z"/><path d="M52.09,29.07l-1.47-5.45h0l.1,1.2v4.25H48.76V18.57h1.83l1.47,5.63h.06L52,23.08V18.57h1.92v10.5Z"/><path d="M58.67,29.07,57.2,23.62h0l.1,1.2v4.25H55.34V18.57h1.83l1.47,5.63h.06l-.12-1.11V18.57H60.5v10.5Z"/><path d="M67.1,26.68a3.84,3.84,0,0,1-.11.93,1.73,1.73,0,0,1-.58.86,2.09,2.09,0,0,1-1,.49,4.71,4.71,0,0,1-1,.11,3.2,3.2,0,0,1-1.21-.19,2.72,2.72,0,0,1-.71-.41,1.81,1.81,0,0,1-.56-.86,3.53,3.53,0,0,1-.13-.93V21A3.53,3.53,0,0,1,62,20a1.81,1.81,0,0,1,.56-.86,2.72,2.72,0,0,1,.71-.41,3.2,3.2,0,0,1,1.21-.19,4.71,4.71,0,0,1,1,.11,2.11,2.11,0,0,1,1,.49A1.72,1.72,0,0,1,67,20a3.85,3.85,0,0,1,.11.93ZM65,20.95q0-.1,0-.25a1.4,1.4,0,0,0,0-.25.39.39,0,0,0-.21-.25.76.76,0,0,0-.54,0,.39.39,0,0,0-.21.25,1.36,1.36,0,0,0,0,.25q0,.15,0,.25v5.74c0,.06,0,.14,0,.25a1.37,1.37,0,0,0,0,.26.38.38,0,0,0,.23.25.68.68,0,0,0,.51,0,.38.38,0,0,0,.22-.25,1.41,1.41,0,0,0,0-.26c0-.11,0-.19,0-.25Z"/><path d="M69.7,29.07l-1.6-10.5h2.13L71,25.38l.81-6.81H74l-1.59,10.5Z"/><path d="M77.76,29.07l-.12-1.33h-.93l-.12,1.33H74.45l1-10.5h3.48l1,10.5Zm-.18-2.8-.36-6.09h-.06l-.39,6.09Z"/><path d="M81.75,29.07V20H80.46V18.57h4.65V20H83.82v9Z"/><path d="M86.27,18.57h2.07v10.5H86.27Z"/><path d="M95,26.68a3.84,3.84,0,0,1-.11.93,1.72,1.72,0,0,1-.58.86,2.08,2.08,0,0,1-1,.49,4.72,4.72,0,0,1-1,.11,3.21,3.21,0,0,1-1.21-.19,2.74,2.74,0,0,1-.71-.41,1.83,1.83,0,0,1-.56-.86,3.57,3.57,0,0,1-.13-.93V21a3.57,3.57,0,0,1,.13-.93,1.83,1.83,0,0,1,.56-.86,2.74,2.74,0,0,1,.71-.41,3.2,3.2,0,0,1,1.21-.19,4.72,4.72,0,0,1,1,.11,2.1,2.1,0,0,1,1,.49,1.72,1.72,0,0,1,.58.86A3.85,3.85,0,0,1,95,21Zm-2.07-5.73c0-.07,0-.15,0-.25a1.39,1.39,0,0,0,0-.25.39.39,0,0,0-.21-.25.76.76,0,0,0-.54,0,.39.39,0,0,0-.21.25,1.33,1.33,0,0,0,0,.25,2.4,2.4,0,0,0,0,.25v5.74c0,.06,0,.14,0,.25a1.34,1.34,0,0,0,0,.26.38.38,0,0,0,.23.25.68.68,0,0,0,.51,0,.38.38,0,0,0,.22-.25,1.4,1.4,0,0,0,0-.26c0-.11,0-.19,0-.25Z"/><path d="M99.66,29.07l-1.47-5.45h0l.1,1.2v4.25H96.33V18.57h1.83l1.47,5.63h.06l-.12-1.11V18.57h1.92v10.5Z"/><path d="M106.82,29.07V18.57h4.52V20h-2.45v2.67h1.94v1.47h-1.94v4.89Z"/><path d="M112.48,18.57h2.07v10.5h-2.07Z"/><path d="M119.32,29.07a1.94,1.94,0,0,1-.2-.44,2.75,2.75,0,0,1-.09-.8v-2.5c0-.09,0-.21,0-.34a.5.5,0,0,0-.14-.33.55.55,0,0,0-.24-.12,1.14,1.14,0,0,0-.31,0H118v4.59H116V18.57h3.48l.32,0a2,2,0,0,1,.38.09,1.88,1.88,0,0,1,.41.2,1.36,1.36,0,0,1,.37.35,1.2,1.2,0,0,1,.24.51,3.08,3.08,0,0,1,0,.53v2.13a1.51,1.51,0,0,1-.08.46.85.85,0,0,1-.43.45,3.52,3.52,0,0,1-.42.17l-.44.12v.09l.31.12a2.22,2.22,0,0,1,.41.19,1.22,1.22,0,0,1,.32.33,1.25,1.25,0,0,1,.16.36,1.36,1.36,0,0,1,0,.34v2.55c0,.24,0,.44,0,.61a1.39,1.39,0,0,0,.08.41.54.54,0,0,0,.16.24.75.75,0,0,0,.27.13v.11Zm-.83-6.16.25,0a.44.44,0,0,0,.22-.13.55.55,0,0,0,.18-.34c0-.12,0-.23,0-.33V20.86a1.59,1.59,0,0,0,0-.37.86.86,0,0,0-.06-.18c-.07-.14-.15-.22-.24-.24a1.27,1.27,0,0,0-.28,0H118V22.9Z"/><path d="M124.55,25.74v.72a3.9,3.9,0,0,0,0,.58,1.12,1.12,0,0,0,.06.24.68.68,0,0,0,.17.22.48.48,0,0,0,.32.1.43.43,0,0,0,.29-.09.48.48,0,0,0,.15-.22,1.62,1.62,0,0,0,0-.16c0-.07,0-.14,0-.21s0-.14,0-.2v-.51a1.71,1.71,0,0,0-.16-.82,2.56,2.56,0,0,0-.46-.57l-1.43-1.32a5.43,5.43,0,0,1-.4-.44,2.51,2.51,0,0,1-.32-.46,2.4,2.4,0,0,1-.28-.83,6.15,6.15,0,0,1-.05-.78V20.6a1.83,1.83,0,0,1,.19-.83,2.18,2.18,0,0,1,.43-.61,1.66,1.66,0,0,1,.49-.33,2.71,2.71,0,0,1,.53-.17,3.47,3.47,0,0,1,.52-.07h.43a4.86,4.86,0,0,1,1,.11,2,2,0,0,1,.94.48,1.64,1.64,0,0,1,.58.94,6.14,6.14,0,0,1,.08,1v.62h-2v-.58c0-.26,0-.45,0-.59a.66.66,0,0,0-.09-.32.41.41,0,0,0-.13-.12.52.52,0,0,0-.29-.07.49.49,0,0,0-.41.19.55.55,0,0,0-.13.28,2.76,2.76,0,0,0,0,.3V21a1.26,1.26,0,0,0,.21.75,3.48,3.48,0,0,0,.42.5l1.2,1.12.47.44a2.13,2.13,0,0,1,.41.5,2.71,2.71,0,0,1,.28.7,4.19,4.19,0,0,1,.1,1v.58c0,.15,0,.29,0,.44a2.16,2.16,0,0,1-.07.46,2,2,0,0,1-.2.47,2.07,2.07,0,0,1-.37.47,1.9,1.9,0,0,1-.82.46,3.89,3.89,0,0,1-1,.12,4.82,4.82,0,0,1-.86-.09,2.56,2.56,0,0,1-.92-.37,2.19,2.19,0,0,1-.53-.46,1.93,1.93,0,0,1-.3-.52,2.23,2.23,0,0,1-.13-.55,5.41,5.41,0,0,1,0-.57v-.78Z"/><path d="M130,29.07V20h-1.29V18.57h4.65V20h-1.29v9Z"/><path d="M45.22,32.25H46v8.14h-.79Z"/><path d="M48.6,32.25h1.23l4,6.65V32.25h.78v8.14h-.78L49.39,33v7.43H48.6Z"/><path d="M56.41,32.25h6V33H59.8v7.36H59V33h-2.6Z"/><path d="M64.13,32.25h4.8V33h-4v2.66h3v.79h-3V39.6h4.39v.78H64.13Z"/><path d="M71.13,32.25h2.49a4.85,4.85,0,0,1,1.72.25,2.19,2.19,0,0,1,1,.79,2,2,0,0,1,.37,1.18,1.93,1.93,0,0,1-.44,1.25,2.68,2.68,0,0,1-1.35.82l2,3.86h-.85l-1.92-3.7H71.92v3.7h-.79Zm.79.7v3h1.73a3.9,3.9,0,0,0,1.26-.21,1.31,1.31,0,0,0,.7-.51,1.44,1.44,0,0,0,.24-.83,1.38,1.38,0,0,0-.47-1.08,2.11,2.11,0,0,0-1.43-.42Z"/><path d="M78.77,32.25H80l4,6.65V32.25h.78v8.14H84L79.56,33v7.43h-.79Z"/><path d="M89.13,32.25h1.26L93,40.39h-.79l-.81-2.52H88.11l-.82,2.52h-.8Zm.63.54-1.4,4.29h2.78Z"/><path d="M93.17,32.25h6V33H96.56v7.36h-.79V33h-2.6Z"/><path d="M101,32.25h.79v8.14H101Z"/><path d="M107.35,40.55a3,3,0,0,1-2.33-1,4.55,4.55,0,0,1-1.07-3.13,5.79,5.79,0,0,1,.43-2.25,3.13,3.13,0,0,1,3-2,2.89,2.89,0,0,1,1.47.37,3.22,3.22,0,0,1,1,1,4.34,4.34,0,0,1,.62,1.34,5.86,5.86,0,0,1,.21,1.59,5.21,5.21,0,0,1-.22,1.61,4.5,4.5,0,0,1-.54,1.15,3.54,3.54,0,0,1-.65.73,2.86,2.86,0,0,1-1,.53A3.18,3.18,0,0,1,107.35,40.55Zm-.08-.74a2.29,2.29,0,0,0,1.8-.88,3.86,3.86,0,0,0,.75-2.56,4.31,4.31,0,0,0-.82-2.79,2.07,2.07,0,0,0-1.68-.78,2.2,2.2,0,0,0-1.75.89,4.09,4.09,0,0,0-.74,2.66,4,4,0,0,0,.73,2.61A2.17,2.17,0,0,0,107.27,39.81Z"/><path d="M112.75,32.25H114l4,6.65V32.25h.79v8.14H118L113.54,33v7.43h-.79Z"/><path d="M123.11,32.25h1.26L127,40.39h-.79l-.81-2.52h-3.29l-.82,2.52h-.8Zm.63.54-1.4,4.29h2.78Z"/><path d="M128.67,32.25h.79v7.34h3.92v.8h-4.71Z"/><path d="M48.85,16.2h-.53l-.44-1.55H46.3l-.42,1.55h-.53l1.37-4.87h.73Zm-1.77-4.54h0l-.64,2.55h1.33Z"/><path d="M53.79,12.64c-.16-.54-.39-1-1-1a.85.85,0,0,0-.86.83c0,1.21,2.37.74,2.37,2.44a1.35,1.35,0,0,1-1.45,1.38,1.62,1.62,0,0,1-1.66-1.38l.49-.12a1.25,1.25,0,0,0,1.17,1.08.91.91,0,0,0,.93-.9c0-1.35-2.37-.79-2.37-2.42a1.32,1.32,0,0,1,1.4-1.33,1.52,1.52,0,0,1,1.45,1.27Z"/><path d="M58.28,14.67a1.55,1.55,0,1,1-3.09,0V11.33h.51v3c0,.76.06,1.5,1,1.5s1-.74,1-1.5v-3h.51Z"/><path d="M59.35,16.2V11.33h1.34c1.25,0,1.57.71,1.57,1.25a1,1,0,0,1-.81,1.05,1.19,1.19,0,0,1,.92,1.21c0,.58-.25,1.36-1.61,1.36Zm1-2.77c.63,0,1.43,0,1.43-.84s-.76-.82-1.39-.82h-.49v1.66Zm-.46,2.33h.61c1.18,0,1.39-.36,1.39-.89s-.27-1-1.34-1h-.66Z"/><path d="M65.83,12.64c-.16-.54-.39-1-1-1a.85.85,0,0,0-.86.83c0,1.21,2.37.74,2.37,2.44a1.35,1.35,0,0,1-1.45,1.38,1.62,1.62,0,0,1-1.66-1.38l.49-.12a1.25,1.25,0,0,0,1.17,1.08.91.91,0,0,0,.93-.9c0-1.35-2.37-.79-2.37-2.42a1.32,1.32,0,0,1,1.4-1.33,1.52,1.52,0,0,1,1.45,1.27Z"/><path d="M67.79,16.2h-.51V11.33h.51Z"/><path d="M70.07,11.33c1.41,0,2.05,1,2.05,2.41,0,1.55-.64,2.46-2.18,2.46H68.87V11.33Zm-.69,4.43h.48c1.21,0,1.75-.63,1.75-2,0-1.25-.5-1.94-1.51-2h-.72Z"/><path d="M73.6,16.2h-.51V11.33h.51Z"/><path d="M77.84,16.2h-.53l-.44-1.55H75.28l-.42,1.55h-.53l1.37-4.87h.73Zm-1.77-4.54h0l-.64,2.55h1.33Z"/><path d="M79.73,11.33c1.51,0,1.77.8,1.77,1.36a1.29,1.29,0,0,1-.92,1.23l.93,2.27h-.57L80.06,14h-1V16.2h-.51V11.33Zm-.64,2.24h.69c1,0,1.21-.44,1.21-.89,0-.67-.42-.91-1.11-.91h-.78Z"/><path d="M83.93,14.16v2h-.51v-2L82,11.33h.54l1.18,2.33h0l1.11-2.33h.52Z"/><path d="M91.17,13.76c0,1.6-.75,2.53-1.76,2.53s-1.76-.93-1.76-2.53.75-2.53,1.76-2.53S91.17,12.16,91.17,13.76Zm-3,0c0,1.48.58,2.11,1.25,2.11s1.25-.64,1.25-2.11-.58-2.11-1.25-2.11S88.15,12.29,88.15,13.76Z"/><path d="M94.58,11.77H92.64v1.61h1.47v.44H92.64V16.2h-.51V11.33h2.45Z"/><polygon class="cls-1" points="94.43 6.11 83.1 3.18 83.1 6.11 94.43 6.11"/><path class="cls-1" d="M36.24,11.4V27.77a7.36,7.36,0,0,1-7.57,7.13H11.5a7.36,7.36,0,0,1-7.57-7.13V12.26A7.36,7.36,0,0,1,11.5,5.13H90.57v1H13.29c-3.31,0-6,3-6,6.67V27.26c0,3.68,2.68,6.67,6,6.67H26.88c3.31,0,6-3,6-6.67V11.4"/><path d="M25.3,11.36V0h3.49V11.36Zm-3.49,0V0H18.33V11.36Zm-7,0V0H11.36V11.36Zm13.94,3.49H40.15V11.36H28.79Zm0,7H40.15V18.33H28.79Zm0,7H40.15V25.3H28.79Zm-3.49,0V40.15h3.49V28.79Zm-7,0V40.15h3.49V28.79Zm-7,0V40.15h3.49V28.79Zm0-17.43H0v3.49H11.36Zm0,7H0v3.49H11.36Zm0,7H0v3.49H11.36Z"/><path d="M14.71,13.19h1.53V27H14.71Z"/><path d="M18.41,27V13.19h4v1.46h-2.5v4.27h1.53v1.46H19.95V27Z"/><path d="M24.06,13.19h1.53V27H24.06Z"/></g></g></svg>