<svg id="Layer_11" data-name="Layer 11" xmlns="http://www.w3.org/2000/svg" viewBox="0 0 512 512">
  <defs>
    <style>
      .cls-1 {
        fill: #b0b0b0;
      }

      .cls-1, .cls-2 {
        isolation: isolate;
      }

      .cls-2 {
        fill: #7a7a7a;
      }

      .cls-3 {
        fill: #fff;
      }
    </style>
  </defs>
  <title>MacOS</title>
  <circle class="cls-1" cx="256" cy="256" r="223.5"/>
  <path class="cls-2" d="M309.5,114.5l-51,56,42,42-105,155L302.6,474.6c92.5-19.6,163.9-96.4,175.3-191.7Z"/>
  <g>
    <path class="cls-3" d="M313.2,372.1c-7.2.7-14.5,1.3-21.6,0-20.9-3.8-38.8-3.6-59.7,0a66.2,66.2,0,0,1-24.3,0c-23.8-4.8-32.1-29.9-42.6-49.5-16-30-22.7-89-2.4-118.1,13.1-18.9,30.4-30.7,54.1-30.5a55.6,55.6,0,0,1,21.6,5.1c12.9,6,25.4,6.3,38.4.4a66.6,66.6,0,0,1,77.8,17.2c3.3,3.7,1.9,7,0,10.4-1,1.8-2.8,2.9-4.4,4.2-27,21-22.9,65.1,1.6,82.7,3.7,2.7,7.6,5.2,10.3,9C362,319.8,342.4,369.6,313.2,372.1Z"/>
    <path class="cls-3" d="M309.2,114.7c.4,15-4.2,30.2-13.9,41.8-6.4,7.6-27.3,25.7-36.5,14.2-7.9-9.9,6.7-30.8,13.4-37.9C282.4,122.1,295.2,114.7,309.2,114.7Z"/>
  </g>
</svg>
