<?xml version="1.0" encoding="utf-8"?>
<!-- Generator: Adobe Illustrator 21.1.0, SVG Export Plug-In . SVG Version: 6.00 Build 0)  -->
<svg version="1.1" id="Layer_1" xmlns="http://www.w3.org/2000/svg" xmlns:xlink="http://www.w3.org/1999/xlink" x="0px" y="0px"
	 viewBox="0 0 1000 190.5" style="enable-background:new 0 0 1000 190.5;" xml:space="preserve">
<style type="text/css">
	.st0{fill:#FFFFFF;}
</style>
<g>
	<g>
		<path class="st0" d="M520.2,166.9L558.3,67h109.2l-9.9,26.1l-77,0c-1.1,0-1.9-0.9-1.9-1.9l0,0c0-1.1,0.9-1.9,1.9-1.9l0,0h74.3
			l7-18.5h-101l-35.1,92.3h102.7l7.3-19.3h-74.6v0c-1.1,0-1.9-0.9-1.9-1.9l0,0c0-1.1,0.9-1.9,1.9-1.9l0,0h80.1l-10.3,26.9H520.2
			L520.2,166.9z"/>
		<path class="st0" d="M565.2,126.5c0-1.1,0.9-1.9,1.9-1.9l0,0h70.3l6.1-16.1h-68.9c-1.1,0-1.9-0.9-1.9-1.9l0,0
			c0-1.1,0.9-1.9,1.9-1.9l0,0h74.4l-9,23.7l-73,0C566.1,128.4,565.2,127.5,565.2,126.5L565.2,126.5z"/>
	</g>
	<g>
		<path class="st0" d="M662.8,166.9l37.6-98.7l0.5-1.2h90.2c10.9,0,18.8,1.3,24.4,4.3l0,0c5.6,3,8.4,8.3,8.3,14.7l0,0
			c0,4.8-1.4,10.4-3.9,17l0,0l-11.1,29.2c-4.6,12.1-10.6,20.9-19.4,26.6l0,0c-8.8,5.7-20,8.1-35,8.1l0,0H662.8L662.8,166.9z
			 M668.3,163.1h86.1c14.5,0,25-2.4,32.9-7.5l0,0c7.9-5.1,13.4-13,17.9-24.7l0,0l11.1-29.2c2.4-6.3,3.6-11.5,3.6-15.6l0,0
			c-0.1-5.5-1.9-8.8-6.4-11.4l0,0c-4.5-2.5-12-3.8-22.5-3.8l0,0h-87.6L668.3,163.1L668.3,163.1z"/>
		<path class="st0" d="M702.5,140.3c0-1.1,0.9-1.9,1.9-1.9l0,0h52.3c6.1,0,10.4-0.9,13.7-3.2l0,0c3.3-2.3,6-6.2,8.6-12.9l0,0l5-13
			c1.5-3.9,2.2-6.9,2.2-9l0,0c-0.1-2.5-0.7-3.3-2.3-4.3l0,0c-1.7-0.9-4.7-1.4-9.1-1.4l0,0l-52.3,0c-1.1,0-1.9-0.9-1.9-1.9l0,0
			c0-1.1,0.9-1.9,1.9-1.9l0,0l52.3,0c4.6,0,8.1,0.4,10.8,1.8l0,0c2.8,1.4,4.4,4.3,4.3,7.7l0,0c0,2.8-0.9,6.2-2.4,10.3l0,0l-5,13
			c-2.7,7-5.7,11.7-10,14.7l0,0c-4.3,2.9-9.4,3.8-15.9,3.8l0,0h-52.3v0C703.4,142.2,702.5,141.3,702.5,140.3L702.5,140.3z"/>
	</g>
	<g>
		<path class="st0" d="M912.2,166.9l5.4-14.1c1.2-3.2,1.8-5.7,1.8-7.2l0,0c-0.1-1.6-0.4-2-1.2-2.6l0,0c-0.9-0.6-2.8-1-5.8-1l0,0
			l-45,0l-9.5,25h-33.6l37.6-98.7l0.5-1.2h90.2c8,0,13.6,1.3,17.5,4.1l0,0c3.9,2.8,5.7,7.1,5.6,11.9l0,0c0,4.5-1.3,9.5-3.4,15.1l0,0
			l-2.3,6.1c-4.2,11.3-9.7,19.2-21.1,23.2l0,0c0.8,0.4,1.6,0.9,2.3,1.5l0,0c2.3,1.9,3.8,4.9,3.7,8.8l0,0c0,3.1-0.8,6.9-2.6,11.6l0,0
			l-6.7,17.6H912.2L912.2,166.9z M912.4,138.1c3.2,0,5.7,0.3,7.7,1.5l0,0c2.1,1.2,3.1,3.5,3.1,5.9l0,0c0,2.4-0.8,5.1-2.1,8.6l0,0
			l-3.4,9h25.4l5.7-15.1c1.7-4.4,2.4-7.7,2.4-10.2l0,0c0-3.1-0.9-4.6-2.4-5.9l0,0c-1.5-1.2-3.8-2.1-6.5-2.6l0,0l-2.2-0.4l1.3-3.4
			l1-0.2c14.2-3.2,19.1-9.8,24.1-22.4l0,0l2.3-6.1c2-5.4,3.2-10,3.2-13.8l0,0c0-4-1.2-6.7-4-8.8l0,0c-2.8-2.1-7.8-3.4-15.3-3.4l0,0
			H865l-35.1,92.3h25.4l9.5-25H912.4L912.4,138.1z"/>
		<path class="st0" d="M923.9,118h-48.7c-1.1,0-1.9-0.9-1.9-1.9l0,0c0-1.1,0.9-1.9,1.9-1.9l0,0h48.7c3.7,0,6.3-0.7,8.3-2.1l0,0
			c1.9-1.4,3.4-3.5,4.7-6.7l0,0l1.2-3.2c0.7-1.9,1-3.4,1-4.3l0,0c-0.1-1.5-0.3-1.7-1.6-2.3l0,0c-1.3-0.6-3.9-0.8-7.3-0.8l0,0h-46
			c-1.1,0-1.9-0.9-1.9-1.9l0,0c0-1.1,0.9-1.9,1.9-1.9l0,0h46c3.6,0,6.5,0.2,8.8,1.1l0,0c2.4,0.8,4.1,3.2,4,5.9l0,0
			c0,1.7-0.5,3.5-1.3,5.7l0,0l-1.2,3.2c-1.4,3.7-3.3,6.6-6,8.5l0,0C931.6,117.2,928.1,118,923.9,118L923.9,118
			C923.9,118,923.9,118,923.9,118L923.9,118z"/>
	</g>
</g>
<g>
	<path class="st0" d="M436.1,81.3c-0.3,0-0.7,0.1-1,0.3c0,0-37.7,26.2-39.6,27.5c-1.8-1.3-39.8-27.5-39.8-27.5
		c-0.3-0.2-0.6-0.3-1-0.3H320c-0.7,0-1.4,0.5-1.6,1.2c0,0.2-0.1,0.3-0.1,0.5c0,0.5,0.3,1.1,0.7,1.4c0,0,52.8,35.7,56.6,38.3
		c-3.9,2.6-61.4,41.1-61.4,41.1c-0.5,0.3-0.7,0.8-0.7,1.4c0,0.2,0,0.3,0.1,0.5c0.2,0.7,0.9,1.2,1.6,1.2h35.7c0.3,0,0.7-0.1,1-0.3
		c0,0,42-29.1,43.8-30.3c1.8,1.3,43.4,30.3,43.4,30.3c0.3,0.2,0.6,0.3,1,0.3h35.1c0.7,0,1.4-0.5,1.6-1.2c0.1-0.2,0.1-0.3,0.1-0.5
		c0-0.5-0.3-1.1-0.7-1.4c0,0-57.2-38.6-61-41.1c3.8-2.6,56.8-38.3,56.8-38.3c0.5-0.3,0.7-0.8,0.7-1.4c0-0.2,0-0.3-0.1-0.5
		c-0.2-0.7-0.9-1.2-1.6-1.2H436.1z"/>
	<path class="st0" d="M161.5,81.3c-0.5,0-1,0.2-1.3,0.6c0,0-49.8,61-52.3,64c-2.5-3.1-51.4-64-51.4-64c-0.3-0.4-0.8-0.6-1.3-0.6
		H25.9c-0.6,0-1.2,0.4-1.5,1c-0.3,0.6-0.2,1.3,0.2,1.8l67.7,82.2c0.3,0.4,0.8,0.6,1.3,0.6h28.6c0.5,0,1-0.2,1.3-0.6l68.7-82.2
		c0.4-0.5,0.5-1.2,0.2-1.8c-0.3-0.6-0.9-1-1.5-1H161.5z"/>
	<path class="st0" d="M207.9,81.3c-3.4-6.2-5.4-14.3-5.4-23.2c0-18.7,9.4-34.5,20.8-34.5h72.3c3.9,0,7,5.2,7,11.6s-3.2,11.6-7,11.6
		h-72.3c-3.8,0-6.8,5.2-6.8,11.2c0,6,2.7,11.8,6.8,11.8h72.3c3.9,0,7,5.2,7,11.4v0c0,6.3-3.2,11.4-7,11.4h-72.3
		c-4.1,0-6.8,5.8-6.8,11.8c0,6,2.9,11.2,6.8,11.2h72.3c3.9,0,7,5.2,7,11.6c0,6.4-3.2,11.6-7,11.6h-72.3c-11.4,0-20.8-15.7-20.8-34.5
		C202.5,95.7,204.5,87.5,207.9,81.3L207.9,81.3z"/>
	<g>
		<path class="st0" d="M471.2,143.3c0.9,0,1.9,0.2,2.8,0.7c0.9,0.5,1.6,1.2,2.1,2.1c0.5,0.9,0.8,1.8,0.8,2.8c0,1-0.2,1.9-0.7,2.8
			c-0.5,0.9-1.2,1.6-2.1,2.1c-0.9,0.5-1.8,0.7-2.8,0.7c-1,0-1.9-0.2-2.8-0.7c-0.9-0.5-1.6-1.2-2.1-2.1c-0.5-0.9-0.7-1.8-0.7-2.8
			c0-1,0.3-1.9,0.8-2.8c0.5-0.9,1.2-1.6,2.1-2.1C469.3,143.5,470.2,143.3,471.2,143.3z M471.2,144.2c-0.8,0-1.6,0.2-2.3,0.6
			c-0.7,0.4-1.3,1-1.8,1.7c-0.4,0.8-0.6,1.5-0.6,2.4c0,0.8,0.2,1.6,0.6,2.3c0.4,0.7,1,1.3,1.7,1.7c0.7,0.4,1.5,0.6,2.3,0.6
			c0.8,0,1.6-0.2,2.3-0.6c0.7-0.4,1.3-1,1.7-1.7c0.4-0.7,0.6-1.5,0.6-2.3c0-0.8-0.2-1.6-0.6-2.4s-1-1.3-1.8-1.7
			C472.7,144.4,472,144.2,471.2,144.2z M468.7,152.1V146h2.1c0.7,0,1.2,0.1,1.5,0.2c0.3,0.1,0.6,0.3,0.8,0.6
			c0.2,0.3,0.3,0.6,0.3,0.9c0,0.4-0.2,0.8-0.5,1.2c-0.3,0.3-0.7,0.5-1.3,0.6c0.2,0.1,0.4,0.2,0.5,0.3c0.2,0.2,0.5,0.6,0.9,1.2
			l0.7,1.2h-1.2l-0.5-1c-0.4-0.8-0.8-1.2-1-1.4c-0.2-0.1-0.4-0.2-0.8-0.2h-0.6v2.6H468.7z M469.7,148.6h1.2c0.6,0,1-0.1,1.2-0.3
			c0.2-0.2,0.3-0.4,0.3-0.7c0-0.2,0-0.3-0.1-0.5c-0.1-0.1-0.2-0.2-0.4-0.3c-0.2-0.1-0.5-0.1-1-0.1h-1.1V148.6z"/>
	</g>
</g>
</svg>
