<?xml version="1.0" encoding="utf-8"?>
<!-- Generator: Adobe Illustrator 21.1.0, SVG Export Plug-In . SVG Version: 6.00 Build 0)  -->
<svg version="1.1" id="Layer_1" xmlns="http://www.w3.org/2000/svg" xmlns:xlink="http://www.w3.org/1999/xlink" x="0px" y="0px"
	 viewBox="0 0 1000 267" style="enable-background:new 0 0 1000 267;" xml:space="preserve">
<style type="text/css">
	.st0{fill:#0075C9;}
	.st1{fill:#8A8A8D;}
	.st2{fill:#FFFFFF;}
</style>
<g>
	<path class="st0" d="M968.8,227.9c0,3.9-3.2,7.1-7.1,7.1H736.1c-3.9,0-7.1-3.2-7.1-7.1V120.8c0-3.9,3.2-7.1,7.1-7.1h225.6
		c3.9,0,7.1,3.2,7.1,7.1V227.9z"/>
	<g>
		<path class="st1" d="M615.7,113.7c-0.5,0-0.9,0.1-1.4,0.4c0,0-53.4,37.1-56,38.9c-2.6-1.8-56.2-38.9-56.2-38.9
			c-0.4-0.3-0.9-0.4-1.4-0.4h-49.4c-1,0-2,0.7-2.3,1.7c-0.1,0.2-0.1,0.5-0.1,0.7c0,0.8,0.4,1.5,1,2c0,0,74.7,50.5,80.1,54.2
			c-5.5,3.7-86.9,58.2-86.9,58.2c-0.7,0.5-1,1.2-1,2c0,0.2,0,0.5,0.1,0.7c0.3,1,1.2,1.7,2.3,1.7h50.5c0.5,0,0.9-0.1,1.3-0.4
			c0,0,59.4-41.1,62-42.9c2.6,1.8,61.4,42.9,61.4,42.9c0.4,0.3,0.9,0.4,1.4,0.4h49.7c1,0,2-0.7,2.3-1.7c0.1-0.2,0.1-0.5,0.1-0.7
			c0-0.8-0.4-1.5-1-2c0,0-80.9-54.5-86.3-58.2c5.4-3.7,80.3-54.2,80.3-54.2c0.7-0.4,1-1.2,1-2c0-0.2,0-0.5-0.1-0.7
			c-0.3-1-1.2-1.7-2.3-1.7H615.7z"/>
		<path class="st1" d="M227.3,113.7c-0.7,0-1.4,0.3-1.8,0.9c0,0-70.5,86.2-74,90.5c-3.5-4.3-72.7-90.5-72.7-90.5
			c-0.5-0.6-1.1-0.9-1.8-0.9H35.4c-0.9,0-1.8,0.5-2.1,1.4c-0.4,0.8-0.3,1.8,0.3,2.5l95.8,116.3c0.4,0.5,1.1,0.9,1.8,0.9h40.4
			c0.7,0,1.4-0.3,1.8-0.8l97.2-116.3c0.6-0.7,0.7-1.7,0.3-2.5c-0.4-0.8-1.2-1.4-2.1-1.4H227.3z"/>
		<path class="st0" d="M292.9,113.7c-4.8-8.7-7.6-20.3-7.6-32.8c0-26.5,13.3-48.7,29.4-48.7h102.2c5.4,0,9.9,7.4,9.9,16.4
			c0,9-4.5,16.4-9.9,16.4H314.7c-5.4,0-9.6,7.4-9.6,15.9c0,8.5,3.8,16.7,9.6,16.7h102.2c5.4,0,9.9,7.3,9.9,16.2v0
			c0,8.9-4.5,16.2-9.9,16.2H314.7c-5.8,0-9.6,8.2-9.6,16.7c0,8.5,4.2,15.9,9.6,15.9h102.2c5.4,0,9.9,7.4,9.9,16.4
			c0,9-4.5,16.4-9.9,16.4H314.7c-16.2,0-29.4-22.3-29.4-48.7C285.2,134,288.1,122.4,292.9,113.7L292.9,113.7z"/>
		<g>
			<path class="st1" d="M665.3,200.1c1.3,0,2.6,0.3,3.9,1c1.3,0.7,2.3,1.7,3,2.9c0.7,1.3,1.1,2.6,1.1,4c0,1.4-0.4,2.7-1.1,4
				c-0.7,1.3-1.7,2.3-2.9,2.9c-1.3,0.7-2.6,1.1-4,1.1c-1.4,0-2.7-0.4-4-1.1c-1.3-0.7-2.2-1.7-2.9-2.9c-0.7-1.3-1.1-2.6-1.1-4
				c0-1.4,0.4-2.7,1.1-4c0.7-1.3,1.7-2.3,3-2.9C662.7,200.5,664,200.1,665.3,200.1z M665.3,201.4c-1.1,0-2.2,0.3-3.3,0.9
				s-1.9,1.4-2.5,2.5c-0.6,1.1-0.9,2.2-0.9,3.3c0,1.1,0.3,2.2,0.9,3.3c0.6,1.1,1.4,1.9,2.5,2.5c1.1,0.6,2.2,0.9,3.3,0.9
				c1.1,0,2.2-0.3,3.3-0.9c1.1-0.6,1.9-1.4,2.5-2.5c0.6-1.1,0.9-2.2,0.9-3.3c0-1.2-0.3-2.3-0.9-3.3c-0.6-1.1-1.4-1.9-2.5-2.5
				C667.5,201.7,666.4,201.4,665.3,201.4z M661.8,212.5v-8.6h2.9c1,0,1.7,0.1,2.2,0.2c0.5,0.2,0.8,0.4,1.1,0.8
				c0.3,0.4,0.4,0.8,0.4,1.3c0,0.6-0.2,1.2-0.7,1.6c-0.4,0.5-1,0.7-1.8,0.8c0.3,0.1,0.5,0.3,0.7,0.5c0.4,0.3,0.8,0.9,1.3,1.7l1,1.7
				h-1.7l-0.8-1.4c-0.6-1.1-1.1-1.7-1.4-2c-0.3-0.2-0.6-0.3-1.1-0.3h-0.8v3.6H661.8z M663.2,207.7h1.7c0.8,0,1.4-0.1,1.6-0.4
				c0.3-0.2,0.4-0.6,0.4-1c0-0.3-0.1-0.5-0.2-0.7c-0.1-0.2-0.3-0.4-0.6-0.5c-0.2-0.1-0.7-0.1-1.4-0.1h-1.6V207.7z"/>
		</g>
	</g>
	<g>
		<path class="st2" d="M938.9,200.7l-15,14.7l-6.9-5.3l-1,0.5c-6.9,3.6-15.7,5.3-27.6,5.3h-40.9c-13.6,0-21.1-2.1-24.3-6.9
			c-3-4.4-2.4-11.4,1.6-21.6l10.2-25.4c9.9-24.7,25.4-29.7,47.3-29.7h40.9c13.6,0,21.1,2.1,24.3,6.9c3,4.4,2.4,11.4-1.6,21.6
			l-10.1,25.4c-1.2,3.1-2.2,5.2-3.4,7.2l-0.8,1.3L938.9,200.7z M909,150.8h-29.8c-14.3,0-19.9,6.9-24.4,18.1l-3.7,9.2
			c-2.8,6.9-4.1,12.3-1.8,15.7c1.7,2.6,5.2,3.7,11.2,3.7h32.6c0.7,0,1.5,0,2.2-0.1c0.6,0,1.2-0.1,1.7-0.1h1.2l1-2.5l-17.5-14.5
			l15.1-15l18.7,15.7l4.4-10.9c2.2-5.6,3.9-11.3,1.3-15.2C919.1,152.1,915.3,150.8,909,150.8z"/>
		<polygon class="st2" points="819.9,146.3 809.1,146.3 808.2,148.6 808.2,148.6 788.8,197.2 788.8,197.2 787.4,200.7 797.7,200.7 
			792,215 758.4,215 755,215 748.3,215 754,200.7 765.4,200.7 766,199.1 766,199.1 785.8,149.8 785.8,149.8 787.2,146.3 
			776.2,146.3 781.9,132 789.1,132 789.1,132 818.6,132 818.6,132 825.6,132 		"/>
	</g>
</g>
</svg>
