<?xml version="1.0" encoding="utf-8"?>
<!-- Generator: Adobe Illustrator 21.1.0, SVG Export Plug-In . SVG Version: 6.00 Build 0)  -->
<svg version="1.1" id="Layer_1" xmlns="http://www.w3.org/2000/svg" xmlns:xlink="http://www.w3.org/1999/xlink" x="0px" y="0px"
	 viewBox="0 0 1000 267" style="enable-background:new 0 0 1000 267;" xml:space="preserve">
<style type="text/css">
	.st0{fill:#FFFFFF;}
</style>
<g>
	<g>
		<path class="st0" d="M614.8,113.7c-0.5,0-0.9,0.1-1.4,0.4c0,0-53.4,37.1-56,38.9c-2.6-1.8-56.2-38.9-56.2-38.9
			c-0.4-0.3-0.9-0.4-1.4-0.4h-49.4c-1,0-2,0.7-2.3,1.7c-0.1,0.2-0.1,0.5-0.1,0.7c0,0.8,0.4,1.5,1,2c0,0,74.7,50.5,80.1,54.2
			c-5.5,3.7-86.9,58.2-86.9,58.2c-0.7,0.5-1,1.2-1,2c0,0.2,0,0.5,0.1,0.7c0.3,1,1.2,1.7,2.3,1.7h50.5c0.5,0,0.9-0.1,1.3-0.4
			c0,0,59.4-41.1,62-42.9c2.6,1.8,61.4,42.9,61.4,42.9c0.4,0.3,0.9,0.4,1.4,0.4H670c1,0,2-0.7,2.3-1.7c0.1-0.2,0.1-0.5,0.1-0.7
			c0-0.8-0.4-1.5-1-2c0,0-80.9-54.5-86.3-58.2c5.4-3.7,80.3-54.2,80.3-54.2c0.7-0.4,1-1.2,1-2c0-0.2,0-0.5-0.1-0.7
			c-0.3-1-1.2-1.7-2.3-1.7H614.8z"/>
		<path class="st0" d="M226.4,113.7c-0.7,0-1.4,0.3-1.8,0.9c0,0-70.5,86.2-74,90.5c-3.5-4.3-72.7-90.5-72.7-90.5
			c-0.5-0.6-1.1-0.9-1.8-0.9H34.5c-0.9,0-1.8,0.5-2.1,1.4c-0.4,0.8-0.3,1.8,0.3,2.5l95.8,116.3c0.4,0.5,1.1,0.9,1.8,0.9h40.4
			c0.7,0,1.4-0.3,1.8-0.8l97.2-116.3c0.6-0.7,0.7-1.7,0.3-2.5c-0.4-0.8-1.2-1.4-2.1-1.4H226.4z"/>
		<path class="st0" d="M291.9,113.7c-4.8-8.7-7.6-20.3-7.6-32.9c0-26.5,13.3-48.7,29.4-48.7H416c5.4,0,9.9,7.4,9.9,16.4
			c0,9-4.5,16.4-9.9,16.4H313.7c-5.4,0-9.6,7.4-9.6,15.9c0,8.5,3.8,16.7,9.6,16.7H416c5.4,0,9.9,7.3,9.9,16.2v0
			c0,8.9-4.5,16.2-9.9,16.2H313.7c-5.8,0-9.6,8.2-9.6,16.7c0,8.5,4.2,15.9,9.6,15.9H416c5.4,0,9.9,7.4,9.9,16.4
			c0,9-4.5,16.4-9.9,16.4H313.7c-16.2,0-29.4-22.3-29.4-48.7C284.3,134,287.2,122.4,291.9,113.7L291.9,113.7z"/>
		<g>
			<path class="st0" d="M664.4,200.1c1.3,0,2.6,0.3,3.9,1c1.3,0.7,2.3,1.7,3,2.9c0.7,1.3,1.1,2.6,1.1,4c0,1.4-0.4,2.7-1.1,4
				c-0.7,1.3-1.7,2.3-2.9,2.9c-1.3,0.7-2.6,1.1-4,1.1c-1.4,0-2.7-0.4-4-1.1c-1.3-0.7-2.2-1.7-2.9-2.9c-0.7-1.3-1.1-2.6-1.1-4
				c0-1.4,0.4-2.7,1.1-4c0.7-1.3,1.7-2.3,3-2.9C661.8,200.5,663.1,200.1,664.4,200.1z M664.4,201.4c-1.1,0-2.2,0.3-3.3,0.9
				c-1.1,0.6-1.9,1.4-2.5,2.5c-0.6,1.1-0.9,2.2-0.9,3.3c0,1.1,0.3,2.2,0.9,3.3c0.6,1.1,1.4,1.9,2.5,2.5c1.1,0.6,2.2,0.9,3.3,0.9
				c1.1,0,2.2-0.3,3.3-0.9c1.1-0.6,1.9-1.4,2.5-2.5c0.6-1.1,0.9-2.2,0.9-3.3c0-1.2-0.3-2.3-0.9-3.3c-0.6-1.1-1.4-1.9-2.5-2.5
				C666.6,201.7,665.5,201.4,664.4,201.4z M660.9,212.5v-8.6h2.9c1,0,1.7,0.1,2.2,0.2c0.5,0.2,0.8,0.4,1.1,0.8
				c0.3,0.4,0.4,0.8,0.4,1.3c0,0.6-0.2,1.2-0.7,1.6c-0.4,0.5-1,0.7-1.8,0.8c0.3,0.1,0.5,0.3,0.7,0.5c0.4,0.3,0.8,0.9,1.3,1.7l1,1.7
				h-1.7l-0.8-1.4c-0.6-1.1-1.1-1.7-1.4-2c-0.3-0.2-0.6-0.3-1.1-0.3h-0.8v3.6H660.9z M662.3,207.7h1.7c0.8,0,1.4-0.1,1.6-0.4
				c0.3-0.2,0.4-0.6,0.4-1c0-0.3-0.1-0.5-0.2-0.7c-0.1-0.2-0.3-0.4-0.6-0.5c-0.2-0.1-0.7-0.1-1.4-0.1h-1.6V207.7z"/>
		</g>
	</g>
	<g>
		<path class="st0" d="M908.1,150.8h-29.8c-14.3,0-19.9,6.9-24.4,18.1l-3.7,9.2c-2.8,6.9-4.1,12.3-1.8,15.7
			c1.7,2.6,5.2,3.7,11.2,3.7h32.6c0.7,0,1.5,0,2.2-0.1c0.6,0,1.2-0.1,1.7-0.1h1.2l1-2.5l-17.5-14.5l15.1-15l18.7,15.7l4.4-10.9
			c2.2-5.6,3.9-11.3,1.3-15.2C918.2,152.1,914.4,150.8,908.1,150.8z"/>
		<path class="st0" d="M960.8,113.7H735.2c-3.9,0-7.1,3.2-7.1,7.1v107.1c0,3.9,3.2,7.1,7.1,7.1h225.6c3.9,0,7.1-3.2,7.1-7.1V120.8
			C967.9,116.9,964.7,113.7,960.8,113.7z M808.2,146.3l-0.9,2.2l-19.5,48.7l-1.4,3.4h10.4l-5.7,14.3h-33.6h-3.4h-6.7l5.7-14.3h11.4
			l0.6-1.6l19.7-49.3h0l1.4-3.4h-11L781,132h7.3l0,0h29.4l0,0h7l-5.7,14.3H808.2z M945.1,160.8l-10.1,25.4c-1.2,3.1-2.2,5.2-3.4,7.2
			l-0.8,1.3l7.2,6.1l-15,14.7l-6.9-5.3l-1,0.5c-6.9,3.6-15.7,5.3-27.6,5.3h-40.9c-13.6,0-21.1-2.1-24.3-6.9
			c-3-4.4-2.4-11.4,1.6-21.6l10.2-25.4c9.9-24.7,25.4-29.7,47.3-29.7h40.9c13.6,0,21.1,2.1,24.3,6.9
			C949.7,143.6,949.1,150.6,945.1,160.8z"/>
	</g>
</g>
</svg>
