<?xml version="1.0" encoding="utf-8"?>
<!-- Generator: Adobe Illustrator 21.1.0, SVG Export Plug-In . SVG Version: 6.00 Build 0)  -->
<svg version="1.1" id="Layer_1" xmlns="http://www.w3.org/2000/svg" xmlns:xlink="http://www.w3.org/1999/xlink" x="0px" y="0px"
	 viewBox="0 0 999.1 484.7" style="enable-background:new 0 0 999.1 484.7;" xml:space="preserve">
<style type="text/css">
	.st0{fill:#FFFFFF;}
</style>
<g>
	<g>
		<path class="st0" d="M51.9,377h49c17.7,0,20.5,5.8,20.5,17.3v5c0,8.6-4.9,11-11.2,11.6v0.2c8.5,1.5,10.5,5.9,10.5,11.5v15.6h-7.8
			v-13.4c0-9.6-4.6-10.7-12.2-10.7H60.2v24.2h-8.3V377z M99.9,407.2c9.2,0,13.1-2.4,13.1-8.9v-5.6c0-6.9-3-9-15.1-9H60.2v23.5H99.9z
			"/>
		<path class="st0" d="M176.7,399.2c0-15.5,5.2-22.9,21.8-22.9h35.2c16.6,0,21.8,7.4,21.8,22.9v16.7c0,15.5-5.2,22.9-21.8,22.9
			h-35.2c-16.6,0-21.8-7.4-21.8-22.9V399.2z M247.3,396.1c0-10.6-6.4-13-14.4-13h-33.6c-7.9,0-14.4,2.4-14.4,13v23
			c0,10.7,6.4,13,14.4,13h33.6c7.9,0,14.4-2.4,14.4-13V396.1z"/>
		<path class="st0" d="M312.6,377h52.2c12.7,0,16.2,6.6,16.2,13.6v5.2c0,4.4-2.5,8.9-9.9,9.6v0.3c6.5,0.3,12.3,2.8,12.3,12.1v7.3
			c0,8.5-7.6,13-17.8,13h-53.1V377z M372.8,390.2c0-5.6-6.2-6.4-8.7-6.4h-43.2v19.5h42.8c4.5,0,9.1-1.4,9.1-7.5V390.2z M375.2,418.8
			c0-7.6-4.2-8.8-11.8-8.8h-42.5v21.4h43.8c7.7,0,10.5-2.8,10.5-8.2V418.8z"/>
		<path class="st0" d="M439,399.2c0-15.5,5.2-22.9,21.8-22.9h35.3c16.6,0,21.8,7.4,21.8,22.9v16.7c0,15.5-5.2,22.9-21.8,22.9h-35.3
			c-16.6,0-21.8-7.4-21.8-22.9V399.2z M509.6,396.1c0-10.6-6.4-13-14.4-13h-33.6c-8,0-14.4,2.4-14.4,13v23c0,10.7,6.4,13,14.4,13
			h33.6c7.9,0,14.4-2.4,14.4-13V396.1z"/>
		<path class="st0" d="M599.2,383.7h-30.9V377h70.2v6.8h-30.9v54.4h-8.3V383.7z"/>
		<path class="st0" d="M690.6,377h8.3v61.2h-8.3V377z"/>
		<path class="st0" d="M756.2,399.2c0-15.5,5.2-22.9,21.8-22.9h31.7c15,0,19.2,7,19.2,15.2v5.2h-7.3V394c0-10.4-6.4-10.9-14-10.9
			h-28.7c-7.9,0-14.4,2.4-14.4,13v23c0,10.7,6.4,13,14.4,13h29c11.2,0,14.4-2.4,14.4-10.7v-3.8h7.8v4.1c0,11.1-3.5,17.1-20.7,17.1
			H778c-16.6,0-21.8-7.4-21.8-22.9V399.2z"/>
		<path class="st0" d="M884.3,418.9h7.8v4.3c0,6,3.2,8.9,13.5,8.9h25.7c12,0,15.6-2.5,15.6-11.3c0-7.7-3-9.6-13.4-9.6h-15.7
			c-25.3,0-33.6-1.5-33.6-17.8c0-14,8.3-17.1,25.4-17.1h17.8c20.6,0,25.7,5.2,25.7,16.2v2.1h-7.8c-0.2-9.7-1.2-11.5-22.9-11.5h-8.8
			c-16,0-21.6,0.8-21.6,10.9c0,7.3,2.3,9.7,15.2,9.7h24.5c16.1,0,22.9,4.6,22.9,15v4c0,15-12.3,16.1-24.6,16.1h-23
			c-12.1,0-22.7-2.1-22.7-15.5V418.9z"/>
	</g>
	<path class="st0" d="M870.5,160.8c-0.7,0-1.3,0.2-1.9,0.6c0,0-75,52.2-78.6,54.7c-3.6-2.5-79-54.7-79-54.7
		c-0.6-0.4-1.2-0.6-1.9-0.6h-69.4c-1.5,0-2.8,1-3.2,2.3c-0.1,0.3-0.1,0.7-0.1,1c0,1.1,0.5,2.1,1.5,2.8c0,0,104.9,71,112.5,76.1
		c-7.7,5.1-122.1,81.8-122.1,81.8c-0.9,0.6-1.5,1.7-1.5,2.8c0,0.3,0,0.7,0.2,1c0.4,1.4,1.7,2.4,3.2,2.4H701c0.7,0,1.3-0.2,1.9-0.6
		c0,0,83.4-57.8,87.1-60.3c3.6,2.5,86.3,60.3,86.3,60.3c0.6,0.4,1.2,0.6,1.9,0.6h69.8c1.5,0,2.8-1,3.2-2.3c0.1-0.3,0.2-0.6,0.2-1
		c0-1.1-0.5-2.1-1.5-2.7c0,0-113.7-76.6-121.3-81.8c7.6-5.1,112.9-76.2,112.9-76.2c0.9-0.6,1.5-1.7,1.5-2.8c0-0.3-0.1-0.7-0.1-1
		c-0.4-1.4-1.7-2.4-3.2-2.4H870.5z"/>
	<path class="st0" d="M324.7,160.8c-1,0-1.9,0.4-2.6,1.2c0,0-99.1,121.2-104,127.2C213.2,283.2,116,162.1,116,162.1
		c-0.6-0.8-1.6-1.3-2.6-1.3H55.1c-1.3,0-2.5,0.7-3,1.9c-0.5,1.2-0.4,2.5,0.4,3.5l134.6,163.4c0.6,0.8,1.6,1.2,2.6,1.2h56.8
		c1,0,1.9-0.4,2.6-1.2l136.5-163.4c0.8-1,1-2.4,0.5-3.5c-0.5-1.2-1.7-1.9-3-1.9H324.7z"/>
	<path class="st0" d="M416.8,160.8c-6.7-12.3-10.7-28.5-10.7-46.2c0-37.2,18.6-68.5,41.4-68.5h143.6c7.7,0,13.9,10.4,13.9,23.1
		c0,12.6-6.3,23.1-13.9,23.1H447.5c-7.7,0-13.5,10.4-13.5,22.3c0,11.9,5.4,23.4,13.5,23.4h143.6c7.7,0,13.9,10.3,13.9,22.7v0
		c0,12.5-6.3,22.7-13.9,22.7H447.5c-8.1,0-13.5,11.5-13.5,23.4c0,11.9,5.9,22.3,13.5,22.3h143.6c7.7,0,13.9,10.4,13.9,23.1
		c0,12.7-6.3,23.1-13.9,23.1H447.5c-22.7,0-41.4-31.3-41.4-68.5C406.1,189.4,410.2,173.1,416.8,160.8L416.8,160.8z"/>
	<g>
		<path class="st0" d="M940.2,284.1c1.9,0,3.7,0.5,5.5,1.4c1.8,1,3.2,2.3,4.2,4.1c1,1.8,1.5,3.7,1.5,5.6c0,1.9-0.5,3.8-1.5,5.6
			c-1,1.8-2.4,3.2-4.1,4.1c-1.8,1-3.6,1.5-5.6,1.5c-1.9,0-3.8-0.5-5.6-1.5c-1.8-1-3.2-2.4-4.1-4.1c-1-1.8-1.5-3.6-1.5-5.6
			c0-2,0.5-3.8,1.5-5.6c1-1.8,2.4-3.2,4.2-4.1C936.4,284.5,938.3,284.1,940.2,284.1z M940.2,285.9c-1.6,0-3.1,0.4-4.6,1.2
			c-1.5,0.8-2.7,2-3.5,3.5c-0.8,1.5-1.3,3.1-1.3,4.7c0,1.6,0.4,3.2,1.2,4.6c0.8,1.5,2,2.6,3.5,3.5c1.5,0.8,3,1.2,4.6,1.2
			c1.6,0,3.2-0.4,4.6-1.2c1.5-0.8,2.6-2,3.5-3.5c0.8-1.5,1.2-3,1.2-4.6c0-1.6-0.4-3.2-1.3-4.7c-0.8-1.5-2-2.7-3.5-3.5
			C943.2,286.3,941.7,285.9,940.2,285.9z M935.2,301.5v-12h4.1c1.4,0,2.4,0.1,3.1,0.3c0.6,0.2,1.1,0.6,1.5,1.2
			c0.4,0.6,0.6,1.1,0.6,1.8c0,0.9-0.3,1.7-0.9,2.3c-0.6,0.7-1.5,1-2.5,1.1c0.4,0.2,0.8,0.4,1,0.6c0.5,0.5,1.1,1.3,1.8,2.4l1.5,2.4
			H943l-1.1-1.9c-0.8-1.5-1.5-2.4-2-2.8c-0.4-0.3-0.9-0.4-1.6-0.4h-1.1v5.1H935.2z M937.2,294.7h2.4c1.1,0,1.9-0.2,2.3-0.5
			c0.4-0.3,0.6-0.8,0.6-1.3c0-0.4-0.1-0.7-0.3-1c-0.2-0.3-0.5-0.5-0.8-0.6c-0.4-0.1-1-0.2-2-0.2h-2.2V294.7z"/>
	</g>
</g>
</svg>
