<?xml version="1.0" encoding="utf-8"?>
<!-- Generator: Adobe Illustrator 21.1.0, SVG Export Plug-In . SVG Version: 6.00 Build 0)  -->
<svg version="1.1" id="Layer_1" xmlns="http://www.w3.org/2000/svg" xmlns:xlink="http://www.w3.org/1999/xlink" x="0px" y="0px"
	 viewBox="0 0 261.2 127.3" style="enable-background:new 0 0 261.2 127.3;" xml:space="preserve">
<style type="text/css">
	.st0{fill:#8A8A8D;}
	.st1{fill:#D9272E;}
	.st2{fill:none;}
</style>
<g>
	<g>
		<path class="st0" d="M12.1,98.9H25c4.6,0,5.4,1.5,5.4,4.6v1.3c0,2.3-1.3,2.9-3,3v0c2.2,0.4,2.8,1.6,2.8,3v4.1h-2v-3.5
			c0-2.5-1.2-2.8-3.2-2.8H14.3v6.3h-2.2V98.9z M24.7,106.9c2.4,0,3.4-0.6,3.4-2.3v-1.5c0-1.8-0.8-2.4-4-2.4h-9.9v6.2H24.7z"/>
		<path class="st0" d="M44.9,104.8c0-4.1,1.4-6,5.7-6h9.3c4.4,0,5.7,2,5.7,6v4.4c0,4.1-1.4,6-5.7,6h-9.3c-4.3,0-5.7-2-5.7-6V104.8z
			 M63.4,104c0-2.8-1.7-3.4-3.8-3.4h-8.8c-2.1,0-3.8,0.6-3.8,3.4v6c0,2.8,1.7,3.4,3.8,3.4h8.8c2.1,0,3.8-0.6,3.8-3.4V104z"/>
		<path class="st0" d="M80.5,98.9h13.7c3.3,0,4.3,1.7,4.3,3.6v1.4c0,1.2-0.6,2.3-2.6,2.5v0.1c1.7,0.1,3.2,0.7,3.2,3.2v1.9
			c0,2.2-2,3.4-4.7,3.4H80.5V98.9z M96.3,102.4c0-1.5-1.6-1.7-2.3-1.7H82.7v5.1h11.2c1.2,0,2.4-0.4,2.4-2V102.4z M97,109.9
			c0-2-1.1-2.3-3.1-2.3H82.7v5.6h11.5c2,0,2.8-0.7,2.8-2.2V109.9z"/>
		<path class="st0" d="M113.7,104.8c0-4.1,1.4-6,5.7-6h9.3c4.3,0,5.7,2,5.7,6v4.4c0,4.1-1.4,6-5.7,6h-9.3c-4.3,0-5.7-2-5.7-6V104.8z
			 M132.2,104c0-2.8-1.7-3.4-3.8-3.4h-8.8c-2.1,0-3.8,0.6-3.8,3.4v6c0,2.8,1.7,3.4,3.8,3.4h8.8c2.1,0,3.8-0.6,3.8-3.4V104z"/>
		<path class="st0" d="M155.8,100.7h-8.1v-1.8h18.4v1.8h-8.1V115h-2.2V100.7z"/>
		<path class="st0" d="M179.8,98.9h2.2V115h-2.2V98.9z"/>
		<path class="st0" d="M197,104.8c0-4.1,1.4-6,5.7-6h8.3c3.9,0,5,1.8,5,4v1.4h-1.9v-0.7c0-2.7-1.7-2.9-3.7-2.9h-7.5
			c-2.1,0-3.8,0.6-3.8,3.4v6c0,2.8,1.7,3.4,3.8,3.4h7.6c2.9,0,3.8-0.6,3.8-2.8v-1h2v1.1c0,2.9-0.9,4.5-5.4,4.5h-8.2
			c-4.3,0-5.7-2-5.7-6V104.8z"/>
		<path class="st0" d="M230.6,110h2v1.1c0,1.6,0.8,2.3,3.5,2.3h6.7c3.2,0,4.1-0.7,4.1-3c0-2-0.8-2.5-3.5-2.5h-4.1
			c-6.6,0-8.8-0.4-8.8-4.7c0-3.7,2.2-4.5,6.7-4.5h4.7c5.4,0,6.7,1.4,6.7,4.2v0.6h-2c0-2.6-0.3-3-6-3h-2.3c-4.2,0-5.7,0.2-5.7,2.9
			c0,1.9,0.6,2.6,4,2.6h6.4c4.2,0,6,1.2,6,3.9v1c0,3.9-3.2,4.2-6.5,4.2h-6c-3.2,0-6-0.6-6-4.1V110z"/>
	</g>
	<path class="st0" d="M227,42.2c-0.2,0-0.4,0.1-0.5,0.2c0,0-19.7,13.7-20.6,14.4c-0.9-0.7-20.7-14.4-20.7-14.4
		c-0.1-0.1-0.3-0.2-0.5-0.2h-18.2c-0.4,0-0.7,0.3-0.8,0.6c0,0.1,0,0.2,0,0.3c0,0.3,0.1,0.6,0.4,0.7c0,0,27.5,18.6,29.5,20
		c-2,1.4-32,21.5-32,21.5c-0.2,0.2-0.4,0.4-0.4,0.7c0,0.1,0,0.2,0,0.3c0.1,0.4,0.4,0.6,0.8,0.6h18.6c0.2,0,0.4-0.1,0.5-0.2
		c0,0,21.9-15.2,22.9-15.8c1,0.7,22.7,15.8,22.7,15.8c0.1,0.1,0.3,0.2,0.5,0.2h18.3c0.4,0,0.7-0.3,0.8-0.6c0-0.1,0-0.2,0-0.3
		c0-0.3-0.1-0.6-0.4-0.7c0,0-29.8-20.1-31.8-21.5c2-1.3,29.6-20,29.6-20c0.2-0.2,0.4-0.4,0.4-0.7c0-0.1,0-0.2,0-0.3
		c-0.1-0.4-0.5-0.6-0.8-0.6H227z"/>
	<path class="st0" d="M83.7,42.2c-0.3,0-0.5,0.1-0.7,0.3c0,0-26,31.8-27.3,33.4c-1.3-1.6-26.8-33.4-26.8-33.4
		c-0.2-0.2-0.4-0.3-0.7-0.3H13c-0.3,0-0.6,0.2-0.8,0.5c-0.1,0.3-0.1,0.7,0.1,0.9l35.3,42.9c0.2,0.2,0.4,0.3,0.7,0.3h14.9
		c0.3,0,0.5-0.1,0.7-0.3l35.8-42.9c0.2-0.3,0.3-0.6,0.1-0.9c-0.1-0.3-0.5-0.5-0.8-0.5H83.7z"/>
	<path class="st1" d="M107.9,42.2c-1.8-3.2-2.8-7.5-2.8-12.1c0-9.8,4.9-18,10.9-18h37.7c2,0,3.7,2.7,3.7,6.1c0,3.3-1.7,6.1-3.7,6.1
		h-37.7c-2,0-3.5,2.7-3.5,5.9c0,3.1,1.4,6.2,3.5,6.2h37.7c2,0,3.7,2.7,3.7,6v0c0,3.3-1.7,6-3.7,6h-37.7c-2.1,0-3.5,3-3.5,6.2
		c0,3.1,1.5,5.9,3.5,5.9h37.7c2,0,3.7,2.7,3.7,6.1s-1.7,6.1-3.7,6.1h-37.7c-6,0-10.9-8.2-10.9-18C105.1,49.7,106.1,45.4,107.9,42.2
		L107.9,42.2z"/>
	<g>
		<path class="st0" d="M245.3,74.6c0.5,0,1,0.1,1.4,0.4c0.5,0.3,0.8,0.6,1.1,1.1c0.3,0.5,0.4,1,0.4,1.5c0,0.5-0.1,1-0.4,1.5
			c-0.3,0.5-0.6,0.8-1.1,1.1c-0.5,0.3-1,0.4-1.5,0.4c-0.5,0-1-0.1-1.5-0.4c-0.5-0.3-0.8-0.6-1.1-1.1c-0.3-0.5-0.4-1-0.4-1.5
			c0-0.5,0.1-1,0.4-1.5c0.3-0.5,0.6-0.8,1.1-1.1C244.3,74.7,244.8,74.6,245.3,74.6z M245.3,75c-0.4,0-0.8,0.1-1.2,0.3
			c-0.4,0.2-0.7,0.5-0.9,0.9c-0.2,0.4-0.3,0.8-0.3,1.2c0,0.4,0.1,0.8,0.3,1.2c0.2,0.4,0.5,0.7,0.9,0.9c0.4,0.2,0.8,0.3,1.2,0.3
			c0.4,0,0.8-0.1,1.2-0.3c0.4-0.2,0.7-0.5,0.9-0.9c0.2-0.4,0.3-0.8,0.3-1.2c0-0.4-0.1-0.8-0.3-1.2c-0.2-0.4-0.5-0.7-0.9-0.9
			C246.1,75.2,245.7,75,245.3,75z M244,79.1V76h1.1c0.4,0,0.6,0,0.8,0.1c0.2,0.1,0.3,0.2,0.4,0.3c0.1,0.1,0.1,0.3,0.1,0.5
			c0,0.2-0.1,0.4-0.2,0.6c-0.2,0.2-0.4,0.3-0.7,0.3c0.1,0,0.2,0.1,0.3,0.2c0.1,0.1,0.3,0.3,0.5,0.6l0.4,0.6H246l-0.3-0.5
			c-0.2-0.4-0.4-0.6-0.5-0.7c-0.1-0.1-0.2-0.1-0.4-0.1h-0.3v1.3H244z M244.5,77.3h0.6c0.3,0,0.5,0,0.6-0.1c0.1-0.1,0.2-0.2,0.2-0.4
			c0-0.1,0-0.2-0.1-0.3c-0.1-0.1-0.1-0.1-0.2-0.2c-0.1,0-0.3-0.1-0.5-0.1h-0.6V77.3z"/>
	</g>
	<rect x="12.2" y="12.1" class="st2" width="236.6" height="74.7"/>
</g>
</svg>
