<?xml version="1.0" encoding="utf-8"?>
<!-- Generator: Adobe Illustrator 21.0.2, SVG Export Plug-In . SVG Version: 6.00 Build 0)  -->
<svg version="1.1" id="Layer_1" xmlns="http://www.w3.org/2000/svg" xmlns:xlink="http://www.w3.org/1999/xlink" x="0px" y="0px"
	 viewBox="0 0 1333.1 392" style="enable-background:new 0 0 1333.1 392;" xml:space="preserve">
<style type="text/css">
	.st0{clip-path:url(#SVGID_2_);}
	.st1{fill:none;stroke:#333333;stroke-width:1.5781;stroke-miterlimit:10;}
</style>
<g>
	<defs>
		<rect id="SVGID_1_" x="0.1" y="-0.5" width="1333" height="392.5"/>
	</defs>
	<clipPath id="SVGID_2_">
		<use xlink:href="#SVGID_1_"  style="overflow:visible;"/>
	</clipPath>
	<g class="st0">
		<polygon class="st1" points="46.8,-17.7 -11.1,52.7 15.6,52.7 59.3,-0.4 103,52.7 129.6,52.7 71.7,-17.7 		"/>
		<polygon class="st1" points="46.8,52.7 -11.1,123 15.6,123 59.3,70 103,123 129.6,123 71.7,52.7 		"/>
		<polygon class="st1" points="46.8,123 -11.1,193.4 15.6,193.4 59.3,140.3 103,193.4 129.6,193.4 71.7,123 		"/>
		<polygon class="st1" points="46.8,193.4 -11.1,263.8 15.6,263.8 59.3,210.7 103,263.8 129.6,263.8 71.7,193.4 		"/>
		<polygon class="st1" points="46.8,263.8 -11.1,334.1 15.6,334.1 59.3,281.1 103,334.1 129.6,334.1 71.7,263.8 		"/>
		<polygon class="st1" points="46.8,334.1 -11.1,404.5 15.6,404.5 59.3,351.4 103,404.5 129.6,404.5 71.7,334.1 		"/>
		<polygon class="st1" points="46.8,404.5 -11.1,474.9 15.6,474.9 59.3,421.8 103,474.9 129.6,474.9 71.7,404.5 		"/>
		<polygon class="st1" points="71.7,474.9 129.6,404.5 103,404.5 59.3,457.6 15.6,404.5 -11.1,404.5 46.8,474.9 		"/>
		<polygon class="st1" points="71.7,404.5 129.6,334.1 103,334.1 59.3,387.2 15.6,334.1 -11.1,334.1 46.8,404.5 		"/>
		<polygon class="st1" points="71.7,334.1 129.6,263.8 103,263.8 59.3,316.9 15.6,263.8 -11.1,263.8 46.8,334.1 		"/>
		<polygon class="st1" points="71.7,263.8 129.6,193.4 103,193.4 59.3,246.5 15.6,193.4 -11.1,193.4 46.8,263.8 		"/>
		<polygon class="st1" points="71.7,193.4 129.6,123 103,123 59.3,176.1 15.6,123 -11.1,123 46.8,193.4 		"/>
		<polygon class="st1" points="71.7,123 129.6,52.7 103,52.7 59.3,105.8 15.6,52.7 -11.1,52.7 46.8,123 		"/>
		<polygon class="st1" points="71.7,52.7 129.6,-17.7 103,-17.7 59.3,35.4 15.6,-17.7 -11.1,-17.7 46.8,52.7 		"/>
		<polygon class="st1" points="158.6,-52.9 100.7,17.4 127.4,17.4 171,-35.7 214.7,17.4 241.4,17.4 183.5,-52.9 		"/>
		<polygon class="st1" points="158.6,17.4 100.7,87.8 127.4,87.8 171,34.7 214.7,87.8 241.4,87.8 183.5,17.4 		"/>
		<polygon class="st1" points="158.6,87.8 100.7,158.2 127.4,158.2 171,105.1 214.7,158.2 241.4,158.2 183.5,87.8 		"/>
		<polygon class="st1" points="158.6,158.2 100.7,228.5 127.4,228.5 171,175.4 214.7,228.5 241.4,228.5 183.5,158.2 		"/>
		<polygon class="st1" points="158.6,228.5 100.7,298.9 127.4,298.9 171,245.8 214.7,298.9 241.4,298.9 183.5,228.5 		"/>
		<polygon class="st1" points="158.6,298.9 100.7,369.3 127.4,369.3 171,316.2 214.7,369.3 241.4,369.3 183.5,298.9 		"/>
		<polygon class="st1" points="158.6,369.3 100.7,439.6 127.4,439.6 171,386.5 214.7,439.6 241.4,439.6 183.5,369.3 		"/>
		<polygon class="st1" points="158.6,439.6 100.7,510 127.4,510 171,456.9 214.7,510 241.4,510 183.5,439.6 		"/>
		<polygon class="st1" points="183.5,510 241.4,439.6 214.7,439.6 171,492.7 127.4,439.6 100.7,439.6 158.6,510 		"/>
		<polygon class="st1" points="183.5,439.6 241.4,369.3 214.7,369.3 171,422.4 127.4,369.3 100.7,369.3 158.6,439.6 		"/>
		<polygon class="st1" points="183.5,369.3 241.4,298.9 214.7,298.9 171,352 127.4,298.9 100.7,298.9 158.6,369.3 		"/>
		<polygon class="st1" points="183.5,298.9 241.4,228.5 214.7,228.5 171,281.6 127.4,228.5 100.7,228.5 158.6,298.9 		"/>
		<polygon class="st1" points="183.5,228.5 241.4,158.2 214.7,158.2 171,211.3 127.4,158.2 100.7,158.2 158.6,228.5 		"/>
		<polygon class="st1" points="183.5,158.2 241.4,87.8 214.7,87.8 171,140.9 127.4,87.8 100.7,87.8 158.6,158.2 		"/>
		<polygon class="st1" points="183.5,87.8 241.4,17.4 214.7,17.4 171,70.5 127.4,17.4 100.7,17.4 158.6,87.8 		"/>
		<polygon class="st1" points="183.5,17.4 241.4,-52.9 214.7,-52.9 171,0.2 127.4,-52.9 100.7,-52.9 158.6,17.4 		"/>
		<polygon class="st1" points="270.4,-17.7 212.5,52.7 239.2,52.7 282.9,-0.4 326.6,52.7 353.2,52.7 295.3,-17.7 		"/>
		<polygon class="st1" points="270.4,52.7 212.5,123 239.2,123 282.9,70 326.6,123 353.2,123 295.3,52.7 		"/>
		<polygon class="st1" points="270.4,123 212.5,193.4 239.2,193.4 282.9,140.3 326.6,193.4 353.2,193.4 295.3,123 		"/>
		<polygon class="st1" points="270.4,193.4 212.5,263.8 239.2,263.8 282.9,210.7 326.6,263.8 353.2,263.8 295.3,193.4 		"/>
		<polygon class="st1" points="270.4,263.8 212.5,334.1 239.2,334.1 282.9,281.1 326.6,334.1 353.2,334.1 295.3,263.8 		"/>
		<polygon class="st1" points="270.4,334.1 212.5,404.5 239.2,404.5 282.9,351.4 326.6,404.5 353.2,404.5 295.3,334.1 		"/>
		<polygon class="st1" points="270.4,404.5 212.5,474.9 239.2,474.9 282.9,421.8 326.6,474.9 353.2,474.9 295.3,404.5 		"/>
		<polygon class="st1" points="295.3,474.9 353.2,404.5 326.6,404.5 282.9,457.6 239.2,404.5 212.5,404.5 270.4,474.9 		"/>
		<polygon class="st1" points="295.3,404.5 353.2,334.1 326.6,334.1 282.9,387.2 239.2,334.1 212.5,334.1 270.4,404.5 		"/>
		<polygon class="st1" points="295.3,334.1 353.2,263.8 326.6,263.8 282.9,316.9 239.2,263.8 212.5,263.8 270.4,334.1 		"/>
		<polygon class="st1" points="295.3,263.8 353.2,193.4 326.6,193.4 282.9,246.5 239.2,193.4 212.5,193.4 270.4,263.8 		"/>
		<polygon class="st1" points="295.3,193.4 353.2,123 326.6,123 282.9,176.1 239.2,123 212.5,123 270.4,193.4 		"/>
		<polygon class="st1" points="295.3,123 353.2,52.7 326.6,52.7 282.9,105.8 239.2,52.7 212.5,52.7 270.4,123 		"/>
		<polygon class="st1" points="295.3,52.7 353.2,-17.7 326.6,-17.7 282.9,35.4 239.2,-17.7 212.5,-17.7 270.4,52.7 		"/>
		<polygon class="st1" points="382.2,-52.9 324.3,17.4 351,17.4 394.7,-35.7 438.3,17.4 465,17.4 407.1,-52.9 		"/>
		<polygon class="st1" points="382.2,17.4 324.3,87.8 351,87.8 394.7,34.7 438.3,87.8 465,87.8 407.1,17.4 		"/>
		<polygon class="st1" points="382.2,87.8 324.3,158.2 351,158.2 394.7,105.1 438.3,158.2 465,158.2 407.1,87.8 		"/>
		<polygon class="st1" points="382.2,158.2 324.3,228.5 351,228.5 394.7,175.4 438.3,228.5 465,228.5 407.1,158.2 		"/>
		<polygon class="st1" points="382.2,228.5 324.3,298.9 351,298.9 394.7,245.8 438.3,298.9 465,298.9 407.1,228.5 		"/>
		<polygon class="st1" points="382.2,298.9 324.3,369.3 351,369.3 394.7,316.2 438.3,369.3 465,369.3 407.1,298.9 		"/>
		<polygon class="st1" points="382.2,369.3 324.3,439.6 351,439.6 394.7,386.5 438.3,439.6 465,439.6 407.1,369.3 		"/>
		<polygon class="st1" points="382.2,439.6 324.3,510 351,510 394.7,456.9 438.3,510 465,510 407.1,439.6 		"/>
		<polygon class="st1" points="407.1,510 465,439.6 438.3,439.6 394.7,492.7 351,439.6 324.3,439.6 382.2,510 		"/>
		<polygon class="st1" points="407.1,439.6 465,369.3 438.3,369.3 394.7,422.4 351,369.3 324.3,369.3 382.2,439.6 		"/>
		<polygon class="st1" points="407.1,369.3 465,298.9 438.3,298.9 394.7,352 351,298.9 324.3,298.9 382.2,369.3 		"/>
		<polygon class="st1" points="407.1,298.9 465,228.5 438.3,228.5 394.7,281.6 351,228.5 324.3,228.5 382.2,298.9 		"/>
		<polygon class="st1" points="407.1,228.5 465,158.2 438.3,158.2 394.7,211.3 351,158.2 324.3,158.2 382.2,228.5 		"/>
		<polygon class="st1" points="407.1,158.2 465,87.8 438.3,87.8 394.7,140.9 351,87.8 324.3,87.8 382.2,158.2 		"/>
		<polygon class="st1" points="407.1,87.8 465,17.4 438.3,17.4 394.7,70.5 351,17.4 324.3,17.4 382.2,87.8 		"/>
		<polygon class="st1" points="407.1,17.4 465,-52.9 438.3,-52.9 394.7,0.2 351,-52.9 324.3,-52.9 382.2,17.4 		"/>
		<polygon class="st1" points="494,-17.7 436.1,52.6 462.7,52.6 506.4,-0.5 550.1,52.6 576.7,52.6 518.8,-17.7 		"/>
		<polygon class="st1" points="494,52.6 436.1,123 462.7,123 506.4,69.9 550.1,123 576.7,123 518.8,52.6 		"/>
		<polygon class="st1" points="494,123 436.1,193.4 462.7,193.4 506.4,140.3 550.1,193.4 576.7,193.4 518.8,123 		"/>
		<polygon class="st1" points="494,193.4 436.1,263.7 462.7,263.7 506.4,210.6 550.1,263.7 576.7,263.7 518.8,193.4 		"/>
		<polygon class="st1" points="494,263.7 436.1,334.1 462.7,334.1 506.4,281 550.1,334.1 576.7,334.1 518.8,263.7 		"/>
		<polygon class="st1" points="494,334.1 436.1,404.5 462.7,404.5 506.4,351.4 550.1,404.5 576.7,404.5 518.8,334.1 		"/>
		<polygon class="st1" points="494,404.5 436.1,474.8 462.7,474.8 506.4,421.7 550.1,474.8 576.7,474.8 518.8,404.5 		"/>
		<polygon class="st1" points="518.8,474.8 576.7,404.5 550.1,404.5 506.4,457.6 462.7,404.5 436.1,404.5 494,474.8 		"/>
		<polygon class="st1" points="518.8,404.5 576.7,334.1 550.1,334.1 506.4,387.2 462.7,334.1 436.1,334.1 494,404.5 		"/>
		<polygon class="st1" points="518.8,334.1 576.7,263.7 550.1,263.7 506.4,316.8 462.7,263.7 436.1,263.7 494,334.1 		"/>
		<polygon class="st1" points="518.8,263.7 576.7,193.4 550.1,193.4 506.4,246.5 462.7,193.4 436.1,193.4 494,263.7 		"/>
		<polygon class="st1" points="518.8,193.4 576.7,123 550.1,123 506.4,176.1 462.7,123 436.1,123 494,193.4 		"/>
		<polygon class="st1" points="518.8,123 576.7,52.6 550.1,52.6 506.4,105.7 462.7,52.6 436.1,52.6 494,123 		"/>
		<polygon class="st1" points="518.8,52.6 576.7,-17.7 550.1,-17.7 506.4,35.4 462.7,-17.7 436.1,-17.7 494,52.6 		"/>
		<polygon class="st1" points="605.7,-53 547.8,17.4 574.5,17.4 618.2,-35.7 661.9,17.4 688.5,17.4 630.6,-53 		"/>
		<polygon class="st1" points="605.7,17.4 547.8,87.7 574.5,87.7 618.2,34.7 661.9,87.7 688.5,87.7 630.6,17.4 		"/>
		<polygon class="st1" points="605.7,87.7 547.8,158.1 574.5,158.1 618.2,105 661.9,158.1 688.5,158.1 630.6,87.7 		"/>
		<polygon class="st1" points="605.7,158.1 547.8,228.5 574.5,228.5 618.2,175.4 661.9,228.5 688.5,228.5 630.6,158.1 		"/>
		<polygon class="st1" points="605.7,228.5 547.8,298.8 574.5,298.8 618.2,245.8 661.9,298.8 688.5,298.8 630.6,228.5 		"/>
		<polygon class="st1" points="605.7,298.8 547.8,369.2 574.5,369.2 618.2,316.1 661.9,369.2 688.5,369.2 630.6,298.8 		"/>
		<polygon class="st1" points="605.7,369.2 547.8,439.6 574.5,439.6 618.2,386.5 661.9,439.6 688.5,439.6 630.6,369.2 		"/>
		<polygon class="st1" points="605.7,439.6 547.8,509.9 574.5,509.9 618.2,456.9 661.9,509.9 688.5,509.9 630.6,439.6 		"/>
		<polygon class="st1" points="630.6,509.9 688.5,439.6 661.9,439.6 618.2,492.7 574.5,439.6 547.8,439.6 605.7,509.9 		"/>
		<polygon class="st1" points="630.6,439.6 688.5,369.2 661.9,369.2 618.2,422.3 574.5,369.2 547.8,369.2 605.7,439.6 		"/>
		<polygon class="st1" points="630.6,369.2 688.5,298.8 661.9,298.8 618.2,351.9 574.5,298.8 547.8,298.8 605.7,369.2 		"/>
		<polygon class="st1" points="630.6,298.8 688.5,228.5 661.9,228.5 618.2,281.6 574.5,228.5 547.8,228.5 605.7,298.8 		"/>
		<polygon class="st1" points="630.6,228.5 688.5,158.1 661.9,158.1 618.2,211.2 574.5,158.1 547.8,158.1 605.7,228.5 		"/>
		<polygon class="st1" points="630.6,158.1 688.5,87.7 661.9,87.7 618.2,140.8 574.5,87.7 547.8,87.7 605.7,158.1 		"/>
		<polygon class="st1" points="630.6,87.7 688.5,17.4 661.9,17.4 618.2,70.5 574.5,17.4 547.8,17.4 605.7,87.7 		"/>
		<polygon class="st1" points="630.6,17.4 688.5,-53 661.9,-53 618.2,0.1 574.5,-53 547.8,-53 605.7,17.4 		"/>
		<polygon class="st1" points="717.5,-17.8 659.6,52.6 686.2,52.6 729.9,-0.5 773.6,52.6 800.3,52.6 742.4,-17.8 		"/>
		<polygon class="st1" points="717.5,52.6 659.6,122.9 686.2,122.9 729.9,69.9 773.6,122.9 800.3,122.9 742.4,52.6 		"/>
		<polygon class="st1" points="717.5,122.9 659.6,193.3 686.2,193.3 729.9,140.2 773.6,193.3 800.3,193.3 742.4,122.9 		"/>
		<polygon class="st1" points="717.5,193.3 659.6,263.7 686.2,263.7 729.9,210.6 773.6,263.7 800.3,263.7 742.4,193.3 		"/>
		<polygon class="st1" points="717.5,263.7 659.6,334 686.2,334 729.9,280.9 773.6,334 800.3,334 742.4,263.7 		"/>
		<polygon class="st1" points="717.5,334 659.6,404.4 686.2,404.4 729.9,351.3 773.6,404.4 800.3,404.4 742.4,334 		"/>
		<polygon class="st1" points="717.5,404.4 659.6,474.8 686.2,474.8 729.9,421.7 773.6,474.8 800.3,474.8 742.4,404.4 		"/>
		<polygon class="st1" points="742.4,474.8 800.3,404.4 773.6,404.4 729.9,457.5 686.2,404.4 659.6,404.4 717.5,474.8 		"/>
		<polygon class="st1" points="742.4,404.4 800.3,334 773.6,334 729.9,387.1 686.2,334 659.6,334 717.5,404.4 		"/>
		<polygon class="st1" points="742.4,334 800.3,263.7 773.6,263.7 729.9,316.8 686.2,263.7 659.6,263.7 717.5,334 		"/>
		<polygon class="st1" points="742.4,263.7 800.3,193.3 773.6,193.3 729.9,246.4 686.2,193.3 659.6,193.3 717.5,263.7 		"/>
		<polygon class="st1" points="742.4,193.3 800.3,122.9 773.6,122.9 729.9,176 686.2,122.9 659.6,122.9 717.5,193.3 		"/>
		<polygon class="st1" points="742.4,122.9 800.3,52.6 773.6,52.6 729.9,105.7 686.2,52.6 659.6,52.6 717.5,122.9 		"/>
		<polygon class="st1" points="742.4,52.6 800.3,-17.8 773.6,-17.8 729.9,35.3 686.2,-17.8 659.6,-17.8 717.5,52.6 		"/>
		<polygon class="st1" points="829.3,-53 771.4,17.3 798,17.3 841.7,-35.8 885.4,17.3 912.1,17.3 854.2,-53 		"/>
		<polygon class="st1" points="829.3,17.3 771.4,87.7 798,87.7 841.7,34.6 885.4,87.7 912.1,87.7 854.2,17.3 		"/>
		<polygon class="st1" points="829.3,87.7 771.4,158.1 798,158.1 841.7,105 885.4,158.1 912.1,158.1 854.2,87.7 		"/>
		<polygon class="st1" points="829.3,158.1 771.4,228.4 798,228.4 841.7,175.3 885.4,228.4 912.1,228.4 854.2,158.1 		"/>
		<polygon class="st1" points="829.3,228.4 771.4,298.8 798,298.8 841.7,245.7 885.4,298.8 912.1,298.8 854.2,228.4 		"/>
		<polygon class="st1" points="829.3,298.8 771.4,369.2 798,369.2 841.7,316.1 885.4,369.2 912.1,369.2 854.2,298.8 		"/>
		<polygon class="st1" points="829.3,369.2 771.4,439.5 798,439.5 841.7,386.4 885.4,439.5 912.1,439.5 854.2,369.2 		"/>
		<polygon class="st1" points="829.3,439.5 771.4,509.9 798,509.9 841.7,456.8 885.4,509.9 912.1,509.9 854.2,439.5 		"/>
		<polygon class="st1" points="854.2,509.9 912.1,439.5 885.4,439.5 841.7,492.6 798,439.5 771.4,439.5 829.3,509.9 		"/>
		<polygon class="st1" points="854.2,439.5 912.1,369.2 885.4,369.2 841.7,422.3 798,369.2 771.4,369.2 829.3,439.5 		"/>
		<polygon class="st1" points="854.2,369.2 912.1,298.8 885.4,298.8 841.7,351.9 798,298.8 771.4,298.8 829.3,369.2 		"/>
		<polygon class="st1" points="854.2,298.8 912.1,228.4 885.4,228.4 841.7,281.5 798,228.4 771.4,228.4 829.3,298.8 		"/>
		<polygon class="st1" points="854.2,228.4 912.1,158.1 885.4,158.1 841.7,211.2 798,158.1 771.4,158.1 829.3,228.4 		"/>
		<polygon class="st1" points="854.2,158.1 912.1,87.7 885.4,87.7 841.7,140.8 798,87.7 771.4,87.7 829.3,158.1 		"/>
		<polygon class="st1" points="854.2,87.7 912.1,17.3 885.4,17.3 841.7,70.4 798,17.3 771.4,17.3 829.3,87.7 		"/>
		<polygon class="st1" points="854.2,17.3 912.1,-53 885.4,-53 841.7,0.1 798,-53 771.4,-53 829.3,17.3 		"/>
		<polygon class="st1" points="941,-17.8 883.1,52.5 909.8,52.5 953.4,-0.6 997.1,52.5 1023.8,52.5 965.9,-17.8 		"/>
		<polygon class="st1" points="941,52.5 883.1,122.9 909.8,122.9 953.4,69.8 997.1,122.9 1023.8,122.9 965.9,52.5 		"/>
		<polygon class="st1" points="941,122.9 883.1,193.3 909.8,193.3 953.4,140.2 997.1,193.3 1023.8,193.3 965.9,122.9 		"/>
		<polygon class="st1" points="941,193.3 883.1,263.6 909.8,263.6 953.4,210.5 997.1,263.6 1023.8,263.6 965.9,193.3 		"/>
		<polygon class="st1" points="941,263.6 883.1,334 909.8,334 953.4,280.9 997.1,334 1023.8,334 965.9,263.6 		"/>
		<polygon class="st1" points="941,334 883.1,404.4 909.8,404.4 953.4,351.3 997.1,404.4 1023.8,404.4 965.9,334 		"/>
		<polygon class="st1" points="941,404.4 883.1,474.7 909.8,474.7 953.4,421.6 997.1,474.7 1023.8,474.7 965.9,404.4 		"/>
		<polygon class="st1" points="965.9,474.7 1023.8,404.4 997.1,404.4 953.4,457.5 909.8,404.4 883.1,404.4 941,474.7 		"/>
		<polygon class="st1" points="965.9,404.4 1023.8,334 997.1,334 953.4,387.1 909.8,334 883.1,334 941,404.4 		"/>
		<polygon class="st1" points="965.9,334 1023.8,263.6 997.1,263.6 953.4,316.7 909.8,263.6 883.1,263.6 941,334 		"/>
		<polygon class="st1" points="965.9,263.6 1023.8,193.3 997.1,193.3 953.4,246.4 909.8,193.3 883.1,193.3 941,263.6 		"/>
		<polygon class="st1" points="965.9,193.3 1023.8,122.9 997.1,122.9 953.4,176 909.8,122.9 883.1,122.9 941,193.3 		"/>
		<polygon class="st1" points="965.9,122.9 1023.8,52.5 997.1,52.5 953.4,105.6 909.8,52.5 883.1,52.5 941,122.9 		"/>
		<polygon class="st1" points="965.9,52.5 1023.8,-17.8 997.1,-17.8 953.4,35.3 909.8,-17.8 883.1,-17.8 941,52.5 		"/>
		<polygon class="st1" points="1052.8,-53.1 994.9,17.3 1021.5,17.3 1065.2,-35.8 1108.9,17.3 1135.6,17.3 1077.7,-53.1 		"/>
		<polygon class="st1" points="1052.8,17.3 994.9,87.7 1021.5,87.7 1065.2,34.6 1108.9,87.7 1135.6,87.7 1077.7,17.3 		"/>
		<polygon class="st1" points="1052.8,87.7 994.9,158 1021.5,158 1065.2,104.9 1108.9,158 1135.6,158 1077.7,87.7 		"/>
		<polygon class="st1" points="1052.8,158 994.9,228.4 1021.5,228.4 1065.2,175.3 1108.9,228.4 1135.6,228.4 1077.7,158 		"/>
		<polygon class="st1" points="1052.8,228.4 994.9,298.8 1021.5,298.8 1065.2,245.7 1108.9,298.8 1135.6,298.8 1077.7,228.4 		"/>
		<polygon class="st1" points="1052.8,298.8 994.9,369.1 1021.5,369.1 1065.2,316 1108.9,369.1 1135.6,369.1 1077.7,298.8 		"/>
		<polygon class="st1" points="1052.8,369.1 994.9,439.5 1021.5,439.5 1065.2,386.4 1108.9,439.5 1135.6,439.5 1077.7,369.1 		"/>
		<polygon class="st1" points="1052.8,439.5 994.9,509.9 1021.5,509.9 1065.2,456.8 1108.9,509.9 1135.6,509.9 1077.7,439.5 		"/>
		<polygon class="st1" points="1077.7,509.9 1135.6,439.5 1108.9,439.5 1065.2,492.6 1021.5,439.5 994.9,439.5 1052.8,509.9 		"/>
		<polygon class="st1" points="1077.7,439.5 1135.6,369.1 1108.9,369.1 1065.2,422.2 1021.5,369.1 994.9,369.1 1052.8,439.5 		"/>
		<polygon class="st1" points="1077.7,369.1 1135.6,298.8 1108.9,298.8 1065.2,351.8 1021.5,298.8 994.9,298.8 1052.8,369.1 		"/>
		<polygon class="st1" points="1077.7,298.8 1135.6,228.4 1108.9,228.4 1065.2,281.5 1021.5,228.4 994.9,228.4 1052.8,298.8 		"/>
		<polygon class="st1" points="1077.7,228.4 1135.6,158 1108.9,158 1065.2,211.1 1021.5,158 994.9,158 1052.8,228.4 		"/>
		<polygon class="st1" points="1077.7,158 1135.6,87.7 1108.9,87.7 1065.2,140.7 1021.5,87.7 994.9,87.7 1052.8,158 		"/>
		<polygon class="st1" points="1077.7,87.7 1135.6,17.3 1108.9,17.3 1065.2,70.4 1021.5,17.3 994.9,17.3 1052.8,87.7 		"/>
		<polygon class="st1" points="1077.7,17.3 1135.6,-53.1 1108.9,-53.1 1065.2,0 1021.5,-53.1 994.9,-53.1 1052.8,17.3 		"/>
		<polygon class="st1" points="1164.6,-17.9 1106.7,52.5 1133.3,52.5 1177,-0.6 1220.7,52.5 1247.3,52.5 1189.4,-17.9 		"/>
		<polygon class="st1" points="1164.6,52.5 1106.7,122.8 1133.3,122.8 1177,69.8 1220.7,122.8 1247.3,122.8 1189.4,52.5 		"/>
		<polygon class="st1" points="1164.6,122.8 1106.7,193.2 1133.3,193.2 1177,140.1 1220.7,193.2 1247.3,193.2 1189.4,122.8 		"/>
		<polygon class="st1" points="1164.6,193.2 1106.7,263.6 1133.3,263.6 1177,210.5 1220.7,263.6 1247.3,263.6 1189.4,193.2 		"/>
		<polygon class="st1" points="1164.6,263.6 1106.7,333.9 1133.3,333.9 1177,280.9 1220.7,333.9 1247.3,333.9 1189.4,263.6 		"/>
		<polygon class="st1" points="1164.6,333.9 1106.7,404.3 1133.3,404.3 1177,351.2 1220.7,404.3 1247.3,404.3 1189.4,333.9 		"/>
		<polygon class="st1" points="1164.6,404.3 1106.7,474.7 1133.3,474.7 1177,421.6 1220.7,474.7 1247.3,474.7 1189.4,404.3 		"/>
		<polygon class="st1" points="1189.4,474.7 1247.3,404.3 1220.7,404.3 1177,457.4 1133.3,404.3 1106.7,404.3 1164.6,474.7 		"/>
		<polygon class="st1" points="1189.4,404.3 1247.3,333.9 1220.7,333.9 1177,387 1133.3,333.9 1106.7,333.9 1164.6,404.3 		"/>
		<polygon class="st1" points="1189.4,333.9 1247.3,263.6 1220.7,263.6 1177,316.7 1133.3,263.6 1106.7,263.6 1164.6,333.9 		"/>
		<polygon class="st1" points="1189.4,263.6 1247.3,193.2 1220.7,193.2 1177,246.3 1133.3,193.2 1106.7,193.2 1164.6,263.6 		"/>
		<polygon class="st1" points="1189.4,193.2 1247.3,122.8 1220.7,122.8 1177,175.9 1133.3,122.8 1106.7,122.8 1164.6,193.2 		"/>
		<polygon class="st1" points="1189.4,122.8 1247.3,52.5 1220.7,52.5 1177,105.6 1133.3,52.5 1106.7,52.5 1164.6,122.8 		"/>
		<polygon class="st1" points="1189.4,52.5 1247.3,-17.9 1220.7,-17.9 1177,35.2 1133.3,-17.9 1106.7,-17.9 1164.6,52.5 		"/>
		<polygon class="st1" points="1276.3,-53.1 1218.4,17.2 1245.1,17.2 1288.8,-35.9 1332.5,17.2 1359.1,17.2 1301.2,-53.1 		"/>
		<polygon class="st1" points="1276.3,17.2 1218.4,87.6 1245.1,87.6 1288.8,34.5 1332.5,87.6 1359.1,87.6 1301.2,17.2 		"/>
		<polygon class="st1" points="1276.3,87.6 1218.4,158 1245.1,158 1288.8,104.9 1332.5,158 1359.1,158 1301.2,87.6 		"/>
		<polygon class="st1" points="1276.3,158 1218.4,228.3 1245.1,228.3 1288.8,175.2 1332.5,228.3 1359.1,228.3 1301.2,158 		"/>
		<polygon class="st1" points="1276.3,228.3 1218.4,298.7 1245.1,298.7 1288.8,245.6 1332.5,298.7 1359.1,298.7 1301.2,228.3 		"/>
		<polygon class="st1" points="1276.3,298.7 1218.4,369.1 1245.1,369.1 1288.8,316 1332.5,369.1 1359.1,369.1 1301.2,298.7 		"/>
		<polygon class="st1" points="1276.3,369.1 1218.4,439.4 1245.1,439.4 1288.8,386.3 1332.5,439.4 1359.1,439.4 1301.2,369.1 		"/>
		<polygon class="st1" points="1276.3,439.4 1218.4,509.8 1245.1,509.8 1288.8,456.7 1332.5,509.8 1359.1,509.8 1301.2,439.4 		"/>
		<polygon class="st1" points="1301.2,509.8 1359.1,439.4 1332.5,439.4 1288.8,492.5 1245.1,439.4 1218.4,439.4 1276.3,509.8 		"/>
		<polygon class="st1" points="1301.2,439.4 1359.1,369.1 1332.5,369.1 1288.8,422.2 1245.1,369.1 1218.4,369.1 1276.3,439.4 		"/>
		<polygon class="st1" points="1301.2,369.1 1359.1,298.7 1332.5,298.7 1288.8,351.8 1245.1,298.7 1218.4,298.7 1276.3,369.1 		"/>
		<polygon class="st1" points="1301.2,298.7 1359.1,228.3 1332.5,228.3 1288.8,281.4 1245.1,228.3 1218.4,228.3 1276.3,298.7 		"/>
		<polygon class="st1" points="1301.2,228.3 1359.1,158 1332.5,158 1288.8,211.1 1245.1,158 1218.4,158 1276.3,228.3 		"/>
		<polygon class="st1" points="1301.2,158 1359.1,87.6 1332.5,87.6 1288.8,140.7 1245.1,87.6 1218.4,87.6 1276.3,158 		"/>
		<polygon class="st1" points="1301.2,87.6 1359.1,17.2 1332.5,17.2 1288.8,70.3 1245.1,17.2 1218.4,17.2 1276.3,87.6 		"/>
		<polygon class="st1" points="1301.2,17.2 1359.1,-53.1 1332.5,-53.1 1288.8,0 1245.1,-53.1 1218.4,-53.1 1276.3,17.2 		"/>
	</g>
</g>
</svg>
